<svg width="25" height="25" viewBox="0 0 25 25" fill="none" xmlns="http://www.w3.org/2000/svg"><path d="M18.512 22.268a.691.691 0 01-.99.55l-.611-.237a3.475 3.475 0 00-3.658.896l-.432.492a.69.69 0 01-1.13-.022l-.41-.51a3.476 3.476 0 00-3.617-1.053l-.62.21a.69.69 0 01-.635-.044l-.389.642.39-.641a.692.692 0 01-.333-.545l-.101-.647a3.477 3.477 0 00-2.605-2.717l-.642-.128a.69.69 0 01-.545-.99l.238-.61a3.478 3.478 0 00-.897-3.66l-.496-.434a.692.692 0 01.024-1.13l.51-.41a3.478 3.478 0 001.053-3.617l-.21-.62a.692.692 0 01.588-.968l.646-.101a3.477 3.477 0 002.717-2.605l.127-.642a.692.692 0 01.99-.545l.61.237a3.475 3.475 0 003.658-.896l.432-.492a.69.69 0 011.13.022l.41.51.024.03a3.475 3.475 0 003.592 1.024l.62-.211a.69.69 0 01.967.588l.102.647a3.477 3.477 0 002.605 2.717l.641.128.03.006a.691.691 0 01.498.35l.657-.361-.657.36a.692.692 0 01.017.636l-.237.61a3.478 3.478 0 00.901 3.664l.502.43a.692.692 0 01-.029 1.126l-.51.41a.826.826 0 00-.029.024 3.477 3.477 0 00-1.024 3.594l.21.62.011.028a.692.692 0 01-.598.94l-.647.101a3.477 3.477 0 00-2.709 2.57l-.002.01a.625.625 0 00-.005.02l-.132.644z" stroke="#222" stroke-width="1.5" stroke-linecap="round" stroke-linejoin="round"/><path d="M9.606 15.992c.696.756 1.716 1.152 2.736 1.152 1.764 0 3.072-1.248 3.072-2.928 0-1.536-1.116-2.796-3-2.796-.312 0-.756.108-.912.192h-.024s.036-.168.06-.396l.132-1.404h3.144V8.48h-4.488L9.93 12.8l.864.312c.384-.228.864-.36 1.32-.36.972 0 1.704.588 1.704 1.476 0 .9-.768 1.452-1.596 1.452-.78 0-1.428-.432-1.812-.852l-.804 1.164z" fill="#222"/></svg>