<svg width="25" height="25" viewBox="0 0 25 25" fill="none" xmlns="http://www.w3.org/2000/svg"><path d="M.75 11a.25.25 0 01.25-.25h3.5a.25.25 0 01.25.25v12a.25.25 0 01-.25.25H1A.25.25 0 01.75 23V11z" stroke="#222" stroke-width="1.5" stroke-linecap="round" stroke-linejoin="round"/><path clip-rule="evenodd" d="M24 11.832c0-.946-.78-1.714-1.74-1.714h-6.964c1.107-3.079 1.095-4.42.988-5.737-.107-1.317-1.235-2.48-2.56-2.374l-1.72 4.935-4.288 5.154H5v9.538c3.667 0 4.91 2.366 8.342 2.366h5.423c.963 0 3.437 0 3.902-1.714L24 11.832z" stroke="#222" stroke-width="1.5" stroke-linecap="round" stroke-linejoin="round"/></svg>