<svg width="23" height="23" viewBox="0 0 23 23" fill="none" xmlns="http://www.w3.org/2000/svg"><circle cx="11.5" cy="11.5" r="10.75" stroke="#00AA64" stroke-width="1.5"/><path d="M9.854 9.853v.75h.75v-.75h-.75zm-2.534 0v-.75.75zm-.76.76h-.75.75zm0 1.774h-.75.75zm3.294.76h.75v-.75h-.75v.75zm3.293 0v-.75h-.75v.75h.75zm2.533-3.294v.75-.75zm-2.533 0h-.75v.75h.75v-.75zM10.604 7.32v-.004a.012.012 0 01.006-.006h.004v-1.5a1.51 1.51 0 00-1.51 1.51h1.5zm0 2.533V7.32h-1.5v2.533h1.5zm-3.284.75h2.534v-1.5H7.32v1.5zm-.01.01v-.003l.003-.004a.011.011 0 01.003-.002h.004v-1.5a1.51 1.51 0 00-1.51 1.51h1.5zm0 1.774v-1.774h-1.5v1.774h1.5zm.01.01h-.004l-.003-.003a.01.01 0 01-.002-.004v-.003h-1.5c0 .834.675 1.51 1.51 1.51v-1.5zm2.534 0H7.32v1.5h2.534v-1.5zm.75 3.283v-2.533h-1.5v2.533h1.5zm.01.01h-.004l-.004-.003a.014.014 0 01-.002-.003v-.004h-1.5c0 .834.676 1.51 1.51 1.51v-1.5zm1.773 0h-1.774v1.5h1.774v-1.5zm.01-.01v.004a.013.013 0 01-.007.006h-.003v1.5a1.51 1.51 0 001.51-1.51h-1.5zm0-2.533v2.533h1.5v-2.533h-1.5zm3.283-.75h-2.533v1.5h2.533v-1.5zm.01-.01v.003l-.003.004a.01.01 0 01-.003.002h-.004v1.5a1.51 1.51 0 001.51-1.51h-1.5zm0-1.774v1.774h1.5v-1.774h-1.5zm-.01-.01h.004l.003.003a.01.01 0 01.003.004v.003h1.5a1.51 1.51 0 00-1.51-1.51v1.5zm-2.533 0h2.533v-1.5h-2.533v1.5zm-.75-3.283v2.533h1.5V7.32h-1.5zm-.01-.01h.003l.004.003a.011.011 0 01.002.003v.004h1.5a1.51 1.51 0 00-1.51-1.51v1.5zm-1.774 0h1.774v-1.5h-1.774v1.5z" fill="#00AA64"/></svg>