<svg width="60" height="60" viewBox="0 0 60 60" fill="none" xmlns="http://www.w3.org/2000/svg">
<path fill-rule="evenodd" clip-rule="evenodd" d="M49.0909 0H10.9091C4.88459 0 0 4.88426 0 10.9091V49.0909C0 55.1157 4.88459 60 10.9091 60H49.0909C55.1154 60 60 55.1157 60 49.0909V10.9091C60 4.88426 55.1154 0 49.0909 0Z" fill="#F54146"/>
<path fill-rule="evenodd" clip-rule="evenodd" d="M51.818 35.4545C51.818 36.9606 50.5969 38.1818 49.0907 38.1818H38.1816V49.0909C38.1816 50.597 36.9605 51.8181 35.4544 51.8181H24.5453C23.0392 51.8181 21.818 50.597 21.818 49.0909V38.1818H10.9089C9.40279 38.1818 8.18164 36.9606 8.18164 35.4545V24.5454C8.18164 23.0389 9.40279 21.8181 10.9089 21.8181H21.818V10.909C21.818 9.40258 23.0392 8.18176 24.5453 8.18176H35.4544C36.9605 8.18176 38.1816 9.40258 38.1816 10.909V21.8181H49.0907C50.5969 21.8181 51.818 23.0389 51.818 24.5454V35.4545Z" fill="white"/>
</svg>
