<svg width="110" height="102" viewBox="0 0 110 102" fill="none" xmlns="http://www.w3.org/2000/svg">
<path d="M102.808 10.846C102.808 10.846 102.808 9.56252 101.011 8.74107C99.2144 7.97097 97.9309 6.58477 99.3171 4.78785C100.344 3.40166 100.344 1.75876 102.552 2.32351C104.759 2.88825 103.322 4.12043 105.837 3.86372C108.353 3.60702 108.148 3.55568 108.199 5.30126C108.25 7.04684 107.224 8.27901 108.456 9.35716C109.688 10.4353 109.534 12.3349 108.148 12.5916C106.761 12.8483 104.502 12.951 104.502 12.951" fill="white"/>
<path d="M102.808 10.846C102.808 10.846 102.808 9.56252 101.011 8.74107C99.2144 7.97097 97.9309 6.58477 99.3171 4.78785C100.344 3.40166 100.344 1.75876 102.552 2.32351C104.759 2.88825 103.322 4.12043 105.837 3.86372C108.353 3.60702 108.148 3.55568 108.199 5.30126C108.25 7.04684 107.224 8.27901 108.456 9.35716C109.688 10.4353 109.534 12.3349 108.148 12.5916C106.761 12.8483 104.502 12.951 104.502 12.951" stroke="black" stroke-width="0.8" stroke-miterlimit="10" stroke-linecap="round" stroke-linejoin="round"/>
<path d="M100.498 15.0045C100.498 15.0045 101.268 13.567 100.96 12.1808C100.652 10.7946 100.498 9.66513 101.525 8.38162C102.552 7.0981 103.27 6.94408 102.808 7.91955C102.346 8.89502 101.679 10.7946 102.962 10.3839C104.246 9.97317 104.195 8.2276 104.246 7.04676C104.297 5.86593 106.351 5.55789 106.094 8.79234C105.837 12.0268 105.17 12.1295 104.092 13.1049C103.014 14.0804 102.603 15.8773 102.603 15.8773" fill="white"/>
<path d="M100.498 15.0045C100.498 15.0045 101.268 13.567 100.96 12.1808C100.652 10.7946 100.498 9.66513 101.525 8.38162C102.552 7.0981 103.27 6.94408 102.808 7.91955C102.346 8.89502 101.679 10.7946 102.962 10.3839C104.246 9.97317 104.195 8.2276 104.246 7.04676C104.297 5.86593 106.351 5.55789 106.094 8.79234C105.837 12.0268 105.17 12.1295 104.092 13.1049C103.014 14.0804 102.603 15.8773 102.603 15.8773" stroke="black" stroke-width="0.8" stroke-miterlimit="10" stroke-linecap="round" stroke-linejoin="round"/>
<path d="M62.9682 55.3583C62.9682 55.3583 62.9682 57.1038 62.5062 57.8226C62.0441 58.5414 61.8387 60.6463 62.3521 62.4433C62.8655 64.2915 63.4816 64.3942 64.4058 64.3942C65.3299 64.3942 65.1245 62.7513 65.2272 60.6977C65.2272 60.6977 65.5866 63.162 66.3567 62.7513C66.3567 62.7513 66.8701 62.0325 66.5107 60.0816C66.1 58.1307 66.1513 58.7467 65.7406 57.8226C65.3299 56.8985 65.3299 55.1016 65.3299 55.1016" fill="white"/>
<path d="M62.9682 55.3583C62.9682 55.3583 62.9682 57.1038 62.5062 57.8226C62.0441 58.5414 61.8387 60.6463 62.3521 62.4433C62.8655 64.2915 63.4816 64.3942 64.4058 64.3942C65.3299 64.3942 65.1245 62.7513 65.2272 60.6977C65.2272 60.6977 65.5866 63.162 66.3567 62.7513C66.3567 62.7513 66.8701 62.0325 66.5107 60.0816C66.1 58.1307 66.1513 58.7467 65.7406 57.8226C65.3299 56.8985 65.3299 55.1016 65.3299 55.1016" stroke="black" stroke-width="0.8" stroke-miterlimit="10" stroke-linecap="round" stroke-linejoin="round"/>
<path d="M98.4444 98.0222C96.1854 97.4062 96.0827 95.9173 96.0827 95.5066C96.0314 95.0958 92.6943 67.4746 90.0759 55.4609C87.7142 44.5254 86.1227 42.1124 86.1227 42.1124V39.2373L89.0491 28.5585C89.0491 28.5585 97.4176 31.5876 100.241 30.9715C103.065 30.3041 103.219 16.1341 103.219 16.1341L99.9846 14.8506L97.931 26.4535C97.931 26.4535 95.9287 25.1187 91.2054 23.7838C86.4821 22.3976 82.0668 21.5249 82.0668 21.5249C82.0668 21.5249 80.886 22.0383 78.935 22.0383C77.0354 22.0383 75.2898 21.5249 75.2898 21.5249C75.2898 21.5249 73.3902 22.3463 68.6669 23.6812C63.9436 25.0674 62.8141 37.4918 62.5574 41.2396C62.2493 45.2955 62.506 55.4609 62.506 55.4609L65.8945 55.2556L66.9213 41.1369L69.8477 30.3041L71.696 39.2887L71.7987 42.1637C71.7987 42.1637 70.3098 43.6013 69.283 54.7422C67.9995 68.4501 69.0776 95.5066 69.0263 95.9173C68.9749 96.328 68.9236 97.8169 66.6646 98.433C64.0463 99.1517 62.6601 99.6138 62.6601 100.949H73.3902C73.3902 100.949 73.7496 97.1495 73.9036 95.9173C74.0577 94.6851 79.4998 52.8426 79.4998 52.8426C79.4998 52.8426 91.1027 94.2744 91.2567 95.5066C91.4108 96.7387 91.7701 100.538 91.7701 100.538H102.5C102.449 99.2031 101.063 98.6897 98.4444 98.0222Z" fill="black" stroke="black" stroke-width="0.8" stroke-miterlimit="10" stroke-linecap="round" stroke-linejoin="round"/>
<path d="M63.5327 58.49C63.5327 58.49 63.6867 59.6195 64.4568 59.8248C65.2783 60.0302 65.227 60.8517 65.227 60.8517" fill="white"/>
<path d="M63.5327 58.49C63.5327 58.49 63.6867 59.6195 64.4568 59.8248C65.2783 60.0302 65.227 60.8517 65.227 60.8517" stroke="black" stroke-width="0.8" stroke-miterlimit="10" stroke-linecap="round" stroke-linejoin="round"/>
<path d="M106.197 5.09583C106.197 5.09583 105.067 6.99542 105.735 8.99771C106.402 11 107.429 10.2299 107.429 11.2567" fill="white"/>
<path d="M106.197 5.09583C106.197 5.09583 105.067 6.99542 105.735 8.99771C106.402 11 107.429 10.2299 107.429 11.2567" stroke="black" stroke-width="0.8" stroke-miterlimit="10" stroke-linecap="round" stroke-linejoin="round"/>
<path d="M73.5954 14.9532C73.5954 14.9532 72.1065 15.2613 71.3364 16.7502C71.3364 16.7502 72.8766 17.8283 74.1088 15.672" fill="white"/>
<path d="M73.5954 14.9532C73.5954 14.9532 72.1065 15.2613 71.3364 16.7502C71.3364 16.7502 72.8766 17.8283 74.1088 15.672" stroke="black" stroke-width="0.8" stroke-miterlimit="10" stroke-linecap="round" stroke-linejoin="round"/>
<path d="M79.9103 17.623C84.685 20.6521 85.4551 15.364 85.4551 15.364L87.4574 14.7479C85.8145 13.5157 86.3279 10.692 85.9172 8.89508C85.6605 7.61157 85.1984 6.8928 85.1984 6.8928C85.1984 6.8928 87.1494 4.27443 84.5823 2.16947C82.0153 0.0645046 74.5709 0.372548 72.8767 6.68743C71.1824 13.0023 72.9794 15.9287 76.1625 17.931C76.1625 17.931 76.3678 20.2413 75.5977 21.4222" fill="white"/>
<path d="M79.9103 17.623C84.685 20.6521 85.4551 15.364 85.4551 15.364L87.4574 14.7479C85.8145 13.5157 86.3279 10.692 85.9172 8.89508C85.6605 7.61157 85.1984 6.8928 85.1984 6.8928C85.1984 6.8928 87.1494 4.27443 84.5823 2.16947C82.0153 0.0645046 74.5709 0.372548 72.8767 6.68743C71.1824 13.0023 72.9794 15.9287 76.1625 17.931C76.1625 17.931 76.3678 20.2413 75.5977 21.4222" stroke="black" stroke-width="0.8" stroke-miterlimit="10" stroke-linecap="round" stroke-linejoin="round"/>
<path d="M84.9416 11.7701C84.9416 12.1808 84.5822 12.5402 84.1715 12.5402C83.7608 12.5402 83.4014 12.1808 83.4014 11.7701C83.4014 11.3594 83.7608 11 84.1715 11C84.5822 11 84.9416 11.308 84.9416 11.7701Z" fill="black"/>
<path d="M81.1938 18.5471C81.1938 18.5471 81.1938 20.1387 82.118 21.4222L81.1938 18.5471Z" fill="white"/>
<path d="M81.1938 18.5471C81.1938 18.5471 81.1938 20.1387 82.118 21.4222" stroke="black" stroke-width="0.8" stroke-miterlimit="10" stroke-linecap="round" stroke-linejoin="round"/>
<path d="M84.9417 9.56252C84.9417 9.56252 83.9662 8.48436 81.5532 9.20313L84.9417 9.56252Z" fill="white"/>
<path d="M84.9417 9.56252C84.9417 9.56252 83.9662 8.48436 81.5532 9.20313" stroke="black" stroke-width="0.8" stroke-miterlimit="10" stroke-linecap="round" stroke-linejoin="round"/>
<path d="M84.8901 17.0069C84.8901 17.0069 82.4771 17.0069 82.1177 15.5693L84.8901 17.0069Z" fill="white"/>
<path d="M84.8901 17.0069C84.8901 17.0069 82.4771 17.0069 82.1177 15.5693" stroke="black" stroke-width="0.8" stroke-miterlimit="10" stroke-linecap="round" stroke-linejoin="round"/>
<path d="M79.1399 9.81916C79.1399 9.81916 78.7291 8.53565 77.5483 9.25441C76.2648 10.0245 76.3161 12.4375 78.0617 12.5402" fill="white"/>
<path d="M79.1399 9.81916C79.1399 9.81916 78.7291 8.53565 77.5483 9.25441C76.2648 10.0245 76.3161 12.4375 78.0617 12.5402" stroke="black" stroke-width="0.8" stroke-miterlimit="10" stroke-linecap="round" stroke-linejoin="round"/>
<path d="M82.4261 6.22536C82.4261 6.22536 83.2989 3.81236 82.2207 1.09131L82.4261 6.22536Z" fill="white"/>
<path d="M82.4261 6.22536C82.4261 6.22536 83.2989 3.81236 82.2207 1.09131" stroke="black" stroke-width="0.8" stroke-miterlimit="10" stroke-linecap="round" stroke-linejoin="round"/>
<path d="M80.9371 6.174C80.9371 6.174 81.8612 4.0177 80.167 1.19397L80.9371 6.174Z" fill="white"/>
<path d="M80.9371 6.174C80.9371 6.174 81.8612 4.0177 80.167 1.19397" stroke="black" stroke-width="0.8" stroke-miterlimit="10" stroke-linecap="round" stroke-linejoin="round"/>
<path d="M79.3969 6.4307C79.3969 6.4307 80.1156 3.96635 78.062 1.55334L79.3969 6.4307Z" fill="white"/>
<path d="M79.3969 6.4307C79.3969 6.4307 80.1156 3.96635 78.062 1.55334" stroke="black" stroke-width="0.8" stroke-miterlimit="10" stroke-linecap="round" stroke-linejoin="round"/>
<path d="M77.754 6.8928C77.754 6.8928 78.1647 4.73649 75.9058 2.32349L77.754 6.8928Z" fill="white"/>
<path d="M77.754 6.8928C77.754 6.8928 78.1647 4.73649 75.9058 2.32349" stroke="black" stroke-width="0.8" stroke-miterlimit="10" stroke-linecap="round" stroke-linejoin="round"/>
<path d="M76.6246 7.66291C76.6246 7.66291 76.1112 5.09588 74.1089 4.17175L76.6246 7.66291Z" fill="white"/>
<path d="M76.6246 7.66291C76.6246 7.66291 76.1112 5.09588 74.1089 4.17175" stroke="black" stroke-width="0.8" stroke-miterlimit="10" stroke-linecap="round" stroke-linejoin="round"/>
<path d="M75.4438 9.20312C75.4438 9.20312 75.5465 7.1495 72.9795 6.37939L75.4438 9.20312Z" fill="white"/>
<path d="M75.4438 9.20312C75.4438 9.20312 75.5465 7.1495 72.9795 6.37939" stroke="black" stroke-width="0.8" stroke-miterlimit="10" stroke-linecap="round" stroke-linejoin="round"/>
<path d="M74.7248 10.7434C74.7248 10.7434 74.3141 9.04914 72.4658 8.9978L74.7248 10.7434Z" fill="white"/>
<path d="M74.7248 10.7434C74.7248 10.7434 74.3141 9.04914 72.4658 8.9978" stroke="black" stroke-width="0.8" stroke-miterlimit="10" stroke-linecap="round" stroke-linejoin="round"/>
<path d="M84.1715 1.96411C84.1715 1.96411 84.9929 4.32578 83.7607 6.48208L84.1715 1.96411Z" fill="white"/>
<path d="M84.1715 1.96411C84.1715 1.96411 84.9929 4.32578 83.7607 6.48208" stroke="black" stroke-width="0.8" stroke-miterlimit="10" stroke-linecap="round" stroke-linejoin="round"/>
<path d="M102.5 10.1785C102.5 10.1785 102.808 9.56245 101.011 8.79234C99.2144 8.02224 97.9309 6.63604 99.3171 4.83912C100.344 3.45293 100.344 1.81003 102.552 2.37478C104.759 2.93952 103.578 4.01767 105.221 3.96633" fill="white"/>
<path d="M102.5 10.1785C102.5 10.1785 102.808 9.56245 101.011 8.79234C99.2144 8.02224 97.9309 6.63604 99.3171 4.83912C100.344 3.45293 100.344 1.81003 102.552 2.37478C104.759 2.93952 103.578 4.01767 105.221 3.96633" stroke="black" stroke-width="0.8" stroke-miterlimit="10" stroke-linecap="round" stroke-linejoin="round"/>
<path d="M61.7873 54.8962C61.7873 54.8962 62.9168 53.8694 65.2271 54.3828C65.2271 54.3828 63.6869 53.0993 61.6333 54.5882" fill="white"/>
<path d="M99.1118 13.8751C99.1118 13.8751 100.241 16.2368 102.398 16.5962C102.398 16.5962 99.3685 16.6475 98.4443 14.2345" fill="white"/>
<path d="M83.0938 21.1655C83.0938 21.1655 83.0425 22.0897 79.8594 22.449C79.8594 22.449 82.1184 23.5785 85.1475 21.4222" fill="white"/>
<path d="M73.6982 40.0074C73.6982 40.0074 78.0622 41.2396 84.1717 40.0074C84.1717 40.0074 78.8323 42.2664 73.6982 40.0074Z" fill="white"/>
<path d="M73.4414 42.4718C73.4414 42.4718 76.2651 44.012 83.4528 42.8825C83.5555 42.8825 83.6582 42.8312 83.7095 42.8312C83.7609 42.8312 77.908 45.1415 73.4414 42.4718Z" fill="white"/>
<path d="M68.2049 92.6829C68.2049 92.6829 70.3612 93.607 72.6716 93.0936C72.6716 93.0936 71.3881 94.5311 67.9482 93.3503" fill="white"/>
<path d="M96.3393 91.348C96.3393 91.348 94.4397 92.6315 92.1294 92.3748C92.1294 92.3748 93.7723 93.607 96.75 91.8614" fill="white"/>
<path d="M43.6127 21.987C42.2266 19.9847 42.5346 19.0606 42.5346 19.0606C42.5346 19.0606 47.3093 17.469 45.769 10.2813C44.2288 3.09367 37.7086 3.91512 35.1416 4.94193C32.5745 5.96874 32.9853 8.74113 32.9853 8.74113C32.9853 8.74113 31.6504 9.66526 31.9071 12.1809C32.1638 14.6966 32.4718 15.9801 31.291 17.1096L33.1393 17.6744C33.1393 17.6744 33.2933 21.7303 36.7845 20.6521C38.1706 20.1901 38.7354 19.6253 38.7354 19.6253" fill="white"/>
<path d="M43.6127 21.987C42.2266 19.9847 42.5346 19.0606 42.5346 19.0606C42.5346 19.0606 47.3093 17.469 45.769 10.2813C44.2288 3.09367 37.7086 3.91512 35.1416 4.94193C32.5745 5.96874 32.9853 8.74113 32.9853 8.74113C32.9853 8.74113 31.6504 9.66526 31.9071 12.1809C32.1638 14.6966 32.4718 15.9801 31.291 17.1096L33.1393 17.6744C33.1393 17.6744 33.2933 21.7303 36.7845 20.6521C38.1706 20.1901 38.7354 19.6253 38.7354 19.6253" stroke="black" stroke-width="0.8" stroke-miterlimit="10" stroke-linecap="round" stroke-linejoin="round"/>
<path d="M20.7148 67.9882C19.1746 72.1467 9.77923 96.4822 9.77923 96.4822L2.02681 98.6385L1 100.897H8.08499H14.9646L15.9914 98.6385L12.5003 96.6362C12.5003 96.6362 21.6389 72.8655 23.1278 68.8609C24.976 63.8296 26.7216 61.3652 31.2396 61.1085L31.753 58.5415C24.7707 58.6442 22.5117 63.0595 20.7148 67.9882Z" fill="white" stroke="black" stroke-width="0.8" stroke-miterlimit="10" stroke-linecap="round" stroke-linejoin="round"/>
<path d="M34.32 35.1815L26.7729 55.5637L30.3668 56.8472L37.5545 40.9317" fill="black"/>
<path d="M34.32 35.1815L26.7729 55.5637L30.3668 56.8472L37.5545 40.9317" stroke="black" stroke-width="0.8" stroke-miterlimit="10" stroke-linecap="round" stroke-linejoin="round"/>
<path d="M40.8914 60.133L27.3375 100.949H16.6587C16.6587 99.6139 18.0962 99.1518 20.6633 98.4331C22.9222 97.817 24.1031 96.9442 25.0272 92.9396C25.9 89.1918 29.7505 67.8855 32.3176 55.8718C34.6792 44.9362 34.7819 44.4742 34.7819 44.4742L35.0386 38.724C35.0386 38.724 34.9873 36.465 34.2172 34.9762C33.1903 33.0252 31.3934 30.6636 34.4739 26.813C34.9359 26.1969 36.2194 24.554 36.8355 23.6813L37.2976 22.9111C37.2976 22.9111 38.5811 23.2192 40.8914 22.5518C43.2531 21.8843 43.3044 21.5763 43.3044 21.5763L44.1259 22.7571C44.6393 23.3732 45.7688 24.7594 46.3335 25.7862C48.7979 29.8935 45.3067 37.3378 45.6661 40.4696C46.0768 43.8067 48.6952 45.0389 49.3113 49.4542C49.9787 54.3316 49.2599 56.4365 50.2354 60.6464C51.1595 64.8564 57.9365 95.9687 57.9365 95.9687L58.8606 101H46.7442C46.7442 99.6653 48.1818 99.2032 50.7488 98.4844C53.0078 97.8683 53.0078 95.7634 52.4944 93.5044C51.981 91.2454 44.9473 74.5597 38.6838 52.432" fill="black"/>
<path d="M40.8914 60.133L27.3375 100.949H16.6587C16.6587 99.6139 18.0962 99.1518 20.6633 98.4331C22.9222 97.817 24.1031 96.9442 25.0272 92.9396C25.9 89.1918 29.7505 67.8855 32.3176 55.8718C34.6792 44.9362 34.7819 44.4742 34.7819 44.4742L35.0386 38.724C35.0386 38.724 34.9873 36.465 34.2172 34.9762C33.1903 33.0252 31.3934 30.6636 34.4739 26.813C34.9359 26.1969 36.2194 24.554 36.8355 23.6813L37.2976 22.9111C37.2976 22.9111 38.5811 23.2192 40.8914 22.5518C43.2531 21.8843 43.3044 21.5763 43.3044 21.5763L44.1259 22.7571C44.6393 23.3732 45.7688 24.7594 46.3335 25.7862C48.7979 29.8935 45.3067 37.3378 45.6661 40.4696C46.0768 43.8067 48.6952 45.0389 49.3113 49.4542C49.9787 54.3316 49.2599 56.4365 50.2354 60.6464C51.1595 64.8564 57.9365 95.9687 57.9365 95.9687L58.8606 101H46.7442C46.7442 99.6652 48.1818 99.2032 50.7488 98.4844C53.0078 97.8683 53.0078 95.7634 52.4944 93.5044C51.981 91.2454 44.9473 74.5597 38.6838 52.432" stroke="black" stroke-width="0.8" stroke-miterlimit="10" stroke-linecap="round" stroke-linejoin="round"/>
<path d="M44.8451 30.6636L47.7201 38.3647L47.6174 53.9208L51.2113 54.4342C51.2113 54.4342 52.4948 40.1616 51.3653 35.4382C50.3385 31.177 48.3876 24.0406 42.8428 24.0406" fill="black"/>
<path d="M44.8451 30.6636L47.7201 38.3647L47.6174 53.9208L51.2113 54.4343C51.2113 54.4343 52.4948 40.1616 51.3653 35.4382C50.3385 31.177 48.3876 24.0406 42.8428 24.0406" stroke="black" stroke-width="0.8" stroke-miterlimit="10" stroke-linecap="round" stroke-linejoin="round"/>
<path d="M40.07 61.1598C40.07 61.1598 40.0187 59.5682 41.6616 58.7468C42.7397 58.2334 47.0523 56.2824 53.1618 58.6954C53.3672 58.7981 53.4185 60.6977 52.289 60.3897C50.8002 59.979 49.0033 59.7223 45.6148 59.979L46.5389 62.2893" fill="white"/>
<path d="M40.07 61.1598C40.07 61.1598 40.0187 59.5682 41.6616 58.7468C42.7397 58.2334 47.0523 56.2824 53.1618 58.6954C53.3672 58.7981 53.4185 60.6977 52.289 60.3897C50.8002 59.979 49.0033 59.7223 45.6148 59.979L46.5389 62.2893" stroke="black" stroke-width="0.8" stroke-miterlimit="10" stroke-linecap="round" stroke-linejoin="round"/>
<path d="M54.7536 66.0372C52.8027 65.7291 43.9721 62.0326 42.6886 62.6487C41.2511 63.3161 39.9676 64.4456 38.8894 66.0372C34.8335 72.4034 38.3247 86.2654 38.8894 86.8301C39.1974 87.0868 42.9966 87.0868 46.7958 87.0355C50.6464 87.0868 54.4456 87.0868 54.7023 86.8301C55.3697 86.2654 58.8609 72.4034 54.7536 66.0372Z" fill="white" stroke="black" stroke-width="0.8" stroke-miterlimit="10" stroke-linecap="round" stroke-linejoin="round"/>
<path d="M57.6798 71.0686L42.483 75.5865C42.483 75.5865 36.1681 77.5888 36.1681 74.5084C36.0655 71.4279 36.1168 66.5506 37.2976 63.8295C40.3781 56.5392 50.0301 64.959 55.6775 64.3943C57.4231 65.9345 57.6798 71.0686 57.6798 71.0686Z" fill="white" stroke="black" stroke-width="0.8" stroke-miterlimit="10" stroke-linecap="round" stroke-linejoin="round"/>
<path d="M54.2915 72.0953C55.9344 71.5819 55.8317 74.7137 55.8317 76.4593C55.8317 78.2049 56.8072 78.7696 57.526 78.7696C57.526 78.7696 57.9367 74.303 57.68 71.1199L54.2915 72.0953Z" fill="white" stroke="black" stroke-width="0.8" stroke-miterlimit="10" stroke-linecap="round" stroke-linejoin="round"/>
<path d="M48.0281 53.9722C48.0281 53.9722 48.0794 55.4097 47.0012 55.7178C45.7691 56.0771 44.8449 56.9499 44.6909 57.6173C44.6909 57.6173 46.4878 57.258 46.9499 58.4388C47.0526 58.6442 46.5392 59.9277 46.5392 59.9277C46.8986 60.6978 48.1307 60.8005 49.825 60.5951C51.5192 60.3897 51.2112 58.0794 50.8518 56.6932C50.5437 55.307 50.6978 54.2802 50.6978 54.2802L48.0281 53.9722Z" fill="white" stroke="black" stroke-width="0.8" stroke-miterlimit="10" stroke-linecap="round" stroke-linejoin="round"/>
<path d="M32.0097 82.7228C29.494 82.7228 27.543 82.2094 26.1568 81.1826C24.668 80.0531 23.8978 78.3589 23.9492 76.2539C24.0005 70.5551 27.7997 66.3965 30.6748 64.0862L29.802 68.5015C28.0564 70.5038 26.5676 73.1221 26.5162 76.2539C26.5162 77.5374 26.9269 78.4615 27.7484 79.0776C30.3154 81.0286 36.3223 79.7964 38.3759 79.1803C39.0433 78.9749 39.7621 79.3857 39.9674 80.0531C40.1728 80.7205 39.7621 81.4393 39.0946 81.6446C38.992 81.696 36.9383 82.2607 34.32 82.5688C33.4985 82.6715 32.7284 82.7228 32.0097 82.7228Z" fill="white" stroke="black" stroke-width="0.8" stroke-miterlimit="10" stroke-linecap="round" stroke-linejoin="round"/>
<path d="M27.7996 55.9744C27.7996 55.9744 27.0295 57.1039 26.3108 57.6173C25.592 58.182 25.438 58.4901 25.2839 59.0548C25.1299 59.6709 24.3598 60.1843 23.8978 60.595C23.4357 61.0057 23.9491 62.3919 25.3866 60.9544C26.8242 59.5169 27.3376 59.3115 27.851 59.1061" fill="white"/>
<path d="M27.7996 55.9744C27.7996 55.9744 27.0295 57.1039 26.3108 57.6173C25.592 58.182 25.438 58.4901 25.2839 59.0548C25.1299 59.6709 24.3598 60.1843 23.8978 60.595C23.4357 61.0057 23.9491 62.3919 25.3866 60.9544C26.8242 59.5169 27.3376 59.3115 27.851 59.1061" stroke="black" stroke-width="0.8" stroke-miterlimit="10" stroke-linecap="round" stroke-linejoin="round"/>
<path d="M30.0072 56.6932C30.0072 56.6932 29.9559 57.3607 30.0072 57.6687C30.0585 58.0281 30.1099 58.5928 30.1099 58.5928" fill="white"/>
<path d="M30.0072 56.6932C30.0072 56.6932 29.9559 57.3607 30.0072 57.6687C30.0585 58.0281 30.1099 58.5928 30.1099 58.5928" stroke="black" stroke-width="0.8" stroke-miterlimit="10" stroke-linecap="round" stroke-linejoin="round"/>
<path d="M26.157 63.1621C26.157 63.1621 26.1056 62.1352 26.5677 61.4678C27.0298 60.8517 27.3378 61.2625 27.9539 60.6977C28.57 60.133 29.0834 59.7222 29.5454 60.0816C30.0075 60.441 29.5968 61.4165 29.5968 61.4165C29.5968 61.4165 27.6972 63.5214 26.157 63.1621Z" fill="white" stroke="black" stroke-width="0.8" stroke-miterlimit="10" stroke-linecap="round" stroke-linejoin="round"/>
<path d="M34.0631 14.748C34.4884 14.748 34.8332 14.4032 34.8332 13.9779C34.8332 13.5526 34.4884 13.2078 34.0631 13.2078C33.6378 13.2078 33.293 13.5526 33.293 13.9779C33.293 14.4032 33.6378 14.748 34.0631 14.748Z" fill="black"/>
<path d="M45.8717 4.27449C45.8717 5.19862 45.1016 5.91738 44.2288 5.91738C43.3047 5.91738 42.5859 5.14728 42.5859 4.27449C42.5859 3.35036 43.356 2.63159 44.2288 2.63159C45.153 2.63159 45.8717 3.35036 45.8717 4.27449Z" fill="white" stroke="black" stroke-width="0.8" stroke-miterlimit="10" stroke-linecap="round" stroke-linejoin="round"/>
<path d="M39.3516 12.8484C39.3516 12.8484 39.8136 11.3595 41.2512 11.9243C42.6887 12.489 41.6105 16.1855 39.9163 15.4154" fill="white"/>
<path d="M39.3516 12.8484C39.3516 12.8484 39.8136 11.3595 41.2512 11.9243C42.6887 12.489 41.6105 16.1855 39.9163 15.4154" stroke="black" stroke-width="0.8" stroke-miterlimit="10" stroke-linecap="round" stroke-linejoin="round"/>
<path d="M37.6059 20.3441C37.6059 20.3441 37.9653 21.525 37.2979 22.8085L37.6059 20.3441Z" fill="white"/>
<path d="M37.6059 20.3441C37.6059 20.3441 37.9653 21.525 37.2979 22.8085" stroke="black" stroke-width="0.8" stroke-miterlimit="10" stroke-linecap="round" stroke-linejoin="round"/>
<path d="M33.6528 19.2659C33.6528 19.2659 35.1417 19.3686 36.3739 18.2391L33.6528 19.2659Z" fill="white"/>
<path d="M33.6528 19.2659C33.6528 19.2659 35.1417 19.3686 36.3739 18.2391" stroke="black" stroke-width="0.8" stroke-miterlimit="10" stroke-linecap="round" stroke-linejoin="round"/>
<path d="M32.9854 11.8729C32.9854 11.8729 34.0122 10.7434 35.9118 11.3082L32.9854 11.8729Z" fill="white"/>
<path d="M32.9854 11.8729C32.9854 11.8729 34.0122 10.7434 35.9118 11.3082" stroke="black" stroke-width="0.8" stroke-miterlimit="10" stroke-linecap="round" stroke-linejoin="round"/>
<path d="M34.5771 8.94652C34.8339 7.04692 36.066 5.40402 41.0974 4.63391L34.5771 8.94652Z" fill="white"/>
<path d="M34.5771 8.94652C34.8339 7.04692 36.066 5.40402 41.0974 4.63391" stroke="black" stroke-width="0.8" stroke-miterlimit="10" stroke-linecap="round" stroke-linejoin="round"/>
<path d="M36.4766 9.45988C36.4766 9.45988 38.3248 5.558 42.7914 5.45532L36.4766 9.45988Z" fill="white"/>
<path d="M36.4766 9.45988C36.4766 9.45988 38.3248 5.558 42.7914 5.45532" stroke="black" stroke-width="0.8" stroke-miterlimit="10" stroke-linecap="round" stroke-linejoin="round"/>
<path d="M38.1709 10.8461C38.1709 10.8461 39.7111 7.35497 44.0751 6.48218L38.1709 10.8461Z" fill="white"/>
<path d="M38.1709 10.8461C38.1709 10.8461 39.7111 7.35497 44.0751 6.48218" stroke="black" stroke-width="0.8" stroke-miterlimit="10" stroke-linecap="round" stroke-linejoin="round"/>
<path d="M40.7378 10.5381C40.7378 10.5381 41.8159 8.48446 44.7937 7.71436L40.7378 10.5381Z" fill="white"/>
<path d="M40.7378 10.5381C40.7378 10.5381 41.8159 8.48446 44.7937 7.71436" stroke="black" stroke-width="0.8" stroke-miterlimit="10" stroke-linecap="round" stroke-linejoin="round"/>
<path d="M42.6372 11.6163C42.6372 11.6163 44.4341 10.076 45.3069 8.58716L42.6372 11.6163Z" fill="white"/>
<path d="M42.6372 11.6163C42.6372 11.6163 44.4341 10.076 45.3069 8.58716" stroke="black" stroke-width="0.8" stroke-miterlimit="10" stroke-linecap="round" stroke-linejoin="round"/>
<path d="M43.0996 13.7725C43.0996 13.7725 45.3073 12.335 45.7693 10.0247L43.0996 13.7725Z" fill="white"/>
<path d="M43.0996 13.7725C43.0996 13.7725 45.3073 12.335 45.7693 10.0247" stroke="black" stroke-width="0.8" stroke-miterlimit="10" stroke-linecap="round" stroke-linejoin="round"/>
<path d="M42.5347 16.5963C42.5347 16.5963 45.5638 14.9534 46.0258 11.9243L42.5347 16.5963Z" fill="white"/>
<path d="M42.5347 16.5963C42.5347 16.5963 45.5638 14.9534 46.0258 11.9243" stroke="black" stroke-width="0.8" stroke-miterlimit="10" stroke-linecap="round" stroke-linejoin="round"/>
<path d="M24.3084 93.3503C24.3084 93.3503 25.1812 94.2231 27.2862 93.9664C27.2862 93.9664 25.7459 94.7365 23.7437 94.1204" fill="white"/>
<path d="M51.5189 93.607C51.5189 93.607 53.6752 94.0177 56.0369 92.8369C56.0369 92.8369 54.5994 95.0446 50.9028 94.2231" fill="white"/>
<path d="M37.811 50.173C37.811 50.173 39.4539 57.5147 41.0968 58.7468C40.3267 59.2089 40.0187 59.825 40.0187 59.825C40.0187 59.825 38.4785 56.8472 37.811 50.173Z" fill="white"/>
<path d="M33.2931 34.052C33.2931 34.052 35.09 35.7976 34.7819 40.2129C34.5766 43.3446 31.8042 56.4365 31.8042 56.4365V54.3829C31.8042 54.3829 33.8065 43.1393 34.0632 40.5209C34.3199 37.9025 33.2931 34.052 33.2931 34.052Z" fill="white"/>
<path d="M46.4364 38.5187C46.4364 38.5187 42.9965 39.6482 39.146 39.3915C39.146 39.3915 41.6617 40.3156 46.539 38.8781" fill="white"/>
<path d="M46.3336 40.829C46.3336 40.829 43.9206 42.5746 39.1973 41.9071C39.1973 41.9071 43.3045 43.088 46.693 41.4451" fill="white"/>
<path d="M43.8179 31.485C43.8179 31.485 43.8692 31.5363 43.9206 31.639C44.3826 32.4091 46.3336 35.7462 46.7956 36.9271L46.5903 37.6972" fill="white"/>
<path d="M47.3092 43.4987L47.4119 53.202C47.4119 53.202 48.336 53.9208 50.2356 53.8181C50.2356 53.8181 49.0548 54.7936 46.8472 53.2534V41.8044" fill="white"/>
<path d="M37.5029 24.2973C37.5029 24.5026 37.3489 24.6566 37.1436 24.6566C36.9382 24.6566 36.7842 24.5026 36.7842 24.2973C36.7842 24.0919 36.9382 23.9379 37.1436 23.9379C37.3489 23.9379 37.5029 24.0919 37.5029 24.2973Z" fill="white"/>
<path d="M36.6817 25.5294C36.6817 25.7348 36.5276 25.8888 36.3223 25.8888C36.1169 25.8888 35.9629 25.7348 35.9629 25.5294C35.9629 25.3241 36.1169 25.17 36.3223 25.17C36.5276 25.17 36.6817 25.3241 36.6817 25.5294Z" fill="white"/>
<path d="M35.8091 26.7103C35.8091 26.9157 35.6551 27.0697 35.4497 27.0697C35.2444 27.0697 35.0903 26.9157 35.0903 26.7103C35.0903 26.505 35.2444 26.351 35.4497 26.351C35.6551 26.351 35.8091 26.505 35.8091 26.7103Z" fill="white"/>
<path d="M45.1527 21.4221C45.1527 21.4221 42.637 23.3217 40.9941 23.3731C40.9941 23.3731 43.6638 23.9378 45.8202 21.9869" fill="white"/>
</svg>
