<svg width="25" height="27" viewBox="0 0 25 27" fill="none" xmlns="http://www.w3.org/2000/svg"><mask id="a" fill="#fff"><path fill-rule="evenodd" clip-rule="evenodd" d="M9.037 4s-.654-4 3.565-4 3.317 4 3.317 4"/></mask><path d="M7.556 4.242a1.5 1.5 0 102.96-.484l-2.96.484zm6.9-.572a1.5 1.5 0 002.926.66l-2.926-.66zM9.036 4c1.48-.242 1.481-.241 1.481-.24v.003a.079.079 0 00.002.008v-.007a3.064 3.064 0 01-.018-.37c.003-.27.04-.59.146-.88.101-.28.252-.5.482-.663.23-.161.66-.351 1.473-.351v-3c-1.296 0-2.366.31-3.201.899a4.325 4.325 0 00-1.573 2.088 5.723 5.723 0 00-.328 1.87 6.067 6.067 0 00.054.87l.001.008v.005c.001.001.001.002 1.482-.24zm3.566-2.5c.816 0 1.216.19 1.408.332.191.141.316.336.397.602.084.28.102.595.089.867a3.136 3.136 0 01-.043.381V3.68l.002-.004v-.002-.002L15.92 4c1.463.33 1.463.33 1.464.328v-.001-.004l.003-.008a1.177 1.177 0 00.016-.08 6.145 6.145 0 00.09-.786 5.62 5.62 0 00-.213-1.883c-.222-.734-.662-1.54-1.489-2.148-.825-.609-1.894-.918-3.188-.918v3z" fill="#222" mask="url(#a)"/><path d="M6.04 11.516s.512-1.84 1.482-2.658c.97-.817 2.894-.83 2.894-.83a3.015 3.015 0 001.966-.783c.242-.215.462-.46.659-.73m-.538.667a3.173 3.173 0 001.587.635c1.036.144 1.582.076 2.078.179.562.12 1.083.377 1.512.747.426.384 1.221 1.32 1.323 2.439M9 20s-7.529 1.188-8 6m15-6s7.529 1.188 8 6m-11.611-5c3.595 0 6.126-3.29 6.57-9.03C19.404 6.23 16.122 4 12.39 4c-3.734 0-6.787 2.523-6.347 7.97C6.483 17.417 8.794 21 12.39 21z" stroke="#222" stroke-width="1.5" stroke-linecap="round" stroke-linejoin="round"/></svg>