<svg width="25" height="25" viewBox="0 0 25 25" fill="none" xmlns="http://www.w3.org/2000/svg"><path d="M15.25 2.427v20.146c0 .918-.757 1.677-1.684 1.677H3.434a1.69 1.69 0 01-1.684-1.677V2.427c0-.918.757-1.677 1.684-1.677h10.132c.925 0 1.684.76 1.684 1.677z" stroke="#222" stroke-width="1.5" stroke-linecap="round" stroke-linejoin="round"/><mask id="a" fill="#fff"><path fill-rule="evenodd" clip-rule="evenodd" d="M16 10v10H1V10"/></mask><path d="M17.5 10a1.5 1.5 0 00-3 0h3zM16 20v1.5a1.5 1.5 0 001.5-1.5H16zM1 20H-.5A1.5 1.5 0 001 21.5V20zm1.5-10a1.5 1.5 0 10-3 0h3zm12 0v10h3V10h-3zm1.5 8.5H1v3h15v-3zM2.5 20V10h-3v10h3z" fill="#222" mask="url(#a)"/><mask id="b" fill="#fff"><path fill-rule="evenodd" clip-rule="evenodd" d="M1 13V3h15v10"/></mask><path d="M-.5 13a1.5 1.5 0 003 0h-3zM1 3V1.5A1.5 1.5 0 00-.5 3H1zm15 0h1.5A1.5 1.5 0 0016 1.5V3zm-1.5 10a1.5 1.5 0 003 0h-3zm-12 0V3h-3v10h3zM1 4.5h15v-3H1v3zM14.5 3v10h3V3h-3z" fill="#222" mask="url(#b)"/></svg>