<svg width="89" height="100" viewBox="0 0 89 100" fill="none" xmlns="http://www.w3.org/2000/svg">
<path d="M36.021 6.08823C35.9181 6.08823 35.7637 6.03678 35.7123 5.93386C34.2714 4.02989 36.3298 0.73655 36.4327 0.633633C36.5356 0.479258 36.7929 0.427799 36.9473 0.530716C37.1017 0.633633 37.1531 0.890926 37.0502 1.0453C37.0502 1.09676 35.1977 3.97844 36.2783 5.47073C36.3812 5.62511 36.3812 5.8824 36.1754 5.98532C36.1754 6.08823 36.0725 6.08823 36.021 6.08823Z" fill="black"/>
<path d="M37.4618 5.67658C37.2559 5.67658 37.1016 5.5222 37.1016 5.31637C36.8443 1.92011 39.2114 0.170518 39.3143 0.0676015C39.4687 -0.0353155 39.7259 -0.0353156 39.8289 0.170518C39.9318 0.324894 39.9318 0.582186 39.726 0.685103C39.623 0.736562 37.6162 2.28032 37.822 5.26491C37.8734 5.47074 37.7191 5.67658 37.4618 5.67658Z" fill="black"/>
<path d="M35.3521 9.94758C35.2492 9.94758 35.1462 9.89612 35.0948 9.84466C34.9404 9.69028 34.9404 9.43299 35.0948 9.27862C36.1754 8.19799 38.3367 7.6834 40.0348 8.71257C40.2406 8.81549 40.2921 9.07278 40.1377 9.22716C40.0348 9.43299 39.7775 9.48445 39.6231 9.33007C38.2852 8.50674 36.4842 8.91841 35.6608 9.7932C35.5579 9.94758 35.455 9.94758 35.3521 9.94758Z" fill="black"/>
<path d="M37.3589 11.9545C37.4104 12.3661 37.1016 12.7778 36.69 12.8293C36.2783 12.8807 35.8666 12.572 35.8152 12.1603C35.7637 11.7486 36.0725 11.337 36.4841 11.2855C36.9473 11.2341 37.3075 11.5428 37.3589 11.9545Z" fill="black"/>
<path d="M36.6384 17.6149C36.587 17.6149 36.587 17.6149 36.5355 17.6149C36.3297 17.6149 36.1753 17.4091 36.1753 17.2033C36.1753 16.9974 36.3811 16.8431 36.587 16.8431C36.9986 16.8945 38.1307 16.5858 38.9026 15.5051C39.0055 15.3508 39.2628 15.2993 39.4172 15.4537C39.5716 15.5566 39.623 15.8139 39.4686 16.0197C38.6453 17.1518 37.3589 17.6149 36.6384 17.6149Z" fill="black"/>
<path d="M43.5338 13.6012C43.1221 13.6012 42.8134 13.4468 42.8134 13.4468C42.6076 13.3439 42.5046 13.138 42.6076 12.9322C42.7105 12.7264 42.9163 12.6235 43.1221 12.7264C43.1221 12.7264 43.5853 12.9322 43.9455 12.7264C44.2542 12.5205 44.3571 11.9545 44.4086 11.5428C44.4601 10.7195 44.3057 10.1534 43.9969 10.0505C43.7396 9.94761 43.328 10.1534 43.1736 10.3078C43.0192 10.4622 42.8134 10.5137 42.6076 10.3593C42.4532 10.2049 42.4017 9.99907 42.5561 9.79324C42.9163 9.38157 43.6367 9.07282 44.2542 9.27865C44.7174 9.48449 45.2834 9.99907 45.1805 11.5428C45.129 12.4176 44.8717 12.9837 44.3572 13.2924C44.0484 13.5497 43.7911 13.6012 43.5338 13.6012Z" fill="black"/>
<path d="M39.0054 5.62508H38.954C38.7481 5.57362 38.5938 5.41924 38.6452 5.21341C38.6452 5.05903 39.1598 1.86861 41.7327 0.530685C41.9386 0.427768 42.1444 0.530685 42.2473 0.685061C42.3502 0.890895 42.2473 1.09673 42.0929 1.19965C39.8802 2.33173 39.4171 5.26487 39.4171 5.31632C39.3656 5.52216 39.2113 5.62508 39.0054 5.62508Z" fill="black"/>
<path d="M40.3948 6.55133C40.3433 6.55133 40.3433 6.55133 40.2919 6.55133C40.086 6.49987 39.9317 6.29404 39.9831 6.0882C40.0346 5.93383 40.8064 2.53757 43.894 1.66277C44.0998 1.61131 44.3056 1.71423 44.3571 1.92006C44.4085 2.1259 44.3056 2.33173 44.0998 2.38319C41.424 3.15507 40.7035 6.19112 40.7035 6.24258C40.7035 6.44841 40.5492 6.55133 40.3948 6.55133Z" fill="black"/>
<path d="M41.9385 7.52903H41.8871C41.6813 7.47757 41.5269 7.3232 41.5783 7.11736C41.5783 7.06591 42.0929 3.66965 45.8494 3.41235C46.0552 3.41235 46.2611 3.56673 46.2611 3.77256C46.2611 3.9784 46.1067 4.18423 45.9009 4.18423C42.7104 4.39006 42.3502 7.11737 42.2988 7.22028C42.2988 7.37466 42.1444 7.52903 41.9385 7.52903Z" fill="black"/>
<path d="M43.4822 8.19807C43.4308 8.19807 43.4308 8.19807 43.3793 8.19807C43.1735 8.14662 43.0705 7.94078 43.122 7.73495C43.4308 6.65432 44.6143 4.80181 46.9299 5.41932C47.1358 5.47077 47.2387 5.67661 47.1872 5.88244C47.1358 6.08828 46.9299 6.19119 46.7241 6.13973C44.5114 5.57369 43.8424 7.78641 43.8424 7.88932C43.791 8.09516 43.6366 8.19807 43.4822 8.19807Z" fill="black"/>
<path d="M45.1804 8.96987C45.1289 8.96987 45.0774 8.96987 45.026 8.91841C44.8202 8.81549 44.7172 8.60966 44.8202 8.40382C45.1289 7.73486 46.0552 6.60278 47.5475 7.16882C47.7533 7.27174 47.8562 7.47757 47.7533 7.68341C47.6504 7.88924 47.4445 7.99216 47.2387 7.88924C46.1066 7.42611 45.5406 8.5582 45.4891 8.71258C45.4891 8.86695 45.3347 8.96987 45.1804 8.96987Z" fill="black"/>
<path d="M45.8495 10.6166C45.798 10.6166 45.6951 10.6166 45.6436 10.5652C45.4893 10.4622 45.3863 10.2049 45.5407 10.0506C45.8495 9.53598 46.7757 8.76411 48.0107 9.43307C48.2166 9.53598 48.268 9.79328 48.1651 9.94765C48.0622 10.1535 47.8049 10.2049 47.6505 10.102C46.8272 9.6389 46.3126 10.3079 46.2097 10.4622C46.1068 10.5652 45.9524 10.6166 45.8495 10.6166Z" fill="black"/>
<path d="M26.3983 93.0532C26.2954 93.0532 26.1925 93.0017 26.0896 92.8988C25.9866 92.7444 23.2079 89.1938 24.7002 86.0033C24.9575 85.4888 25.3691 84.8713 25.575 84.5625C25.2148 84.0994 24.7002 83.0187 25.4206 80.6517C26.0381 78.4904 25.7293 77.9244 25.3177 77.2554C25.1633 77.0496 25.0089 76.7923 24.906 76.4321C24.5458 75.5573 25.0089 74.8883 25.5235 74.6825C26.0381 74.4766 26.7585 74.6825 27.0673 75.4544L27.1702 75.6602C27.5818 76.6379 28.3023 78.3875 27.5304 80.6517C27.0673 82.0925 27.2731 82.9158 27.4275 83.276C27.8391 83.1217 28.4566 83.0702 28.9198 83.4819C29.0741 83.6362 29.0741 83.8421 28.9712 84.0479C28.8168 84.2023 28.611 84.2023 28.4052 84.0994C28.0964 83.7906 27.4789 84.1508 27.4789 84.1508C27.3245 84.2538 27.1187 84.2023 27.0158 84.0994C26.9643 84.0479 25.9352 82.9673 26.81 80.4973C27.4789 78.5419 26.8614 76.9981 26.4498 76.0719L26.3468 75.8146C26.1925 75.4544 25.9866 75.4029 25.8323 75.5058C25.6264 75.6087 25.472 75.866 25.6264 76.2777C25.7293 76.535 25.8323 76.7408 25.9866 76.9466C26.4498 77.6671 26.9129 78.4389 26.1925 80.9604C25.4206 83.6363 26.3468 84.2538 26.3468 84.2538C26.4498 84.3052 26.5012 84.4081 26.5012 84.511C26.5012 84.614 26.5012 84.7169 26.4498 84.8198C26.4498 84.8198 25.7808 85.746 25.4206 86.415C24.1341 89.1423 26.707 92.4871 26.707 92.4871C26.8614 92.6415 26.81 92.8988 26.6556 93.0532C26.5527 93.0532 26.5012 93.0532 26.3983 93.0532Z" fill="black"/>
<path d="M62.2647 38.3012C62.1103 38.1468 61.8531 38.1983 61.6987 38.3527C61.5443 38.5071 61.5958 38.7643 61.7501 38.9187C61.8531 38.9702 70.3437 45.6598 70.4981 59.8623C70.4981 60.0682 70.6525 60.2225 70.9097 60.2225C71.1156 60.2225 71.27 60.0682 71.27 59.8109C71.167 45.2481 62.3676 38.3527 62.2647 38.3012Z" fill="black"/>
<path d="M81.0471 31.3029C81.2015 31.1485 81.2015 30.8913 81.0471 30.7369C80.8927 30.5825 80.6354 30.5825 80.4811 30.7369C71.0642 40.6684 71.0127 53.0184 71.0127 53.1213C71.0127 53.3272 71.1671 53.4815 71.4244 53.4815C71.6302 53.4815 71.7846 53.3272 71.7846 53.0699C71.7846 53.0699 71.7846 41.0286 81.0471 31.3029Z" fill="black"/>
<path d="M66.1243 32.6923C67.8739 35.7798 69.9322 41.0286 69.9322 48.2842C69.9322 48.4901 70.0866 48.6959 70.3439 48.6959C70.6012 48.6959 70.7555 48.5415 70.7555 48.2842C70.7555 33.9788 62.9853 27.1348 62.8824 27.0833C62.728 26.9289 62.4707 26.9804 62.3164 27.1348C62.162 27.2892 62.2134 27.5465 62.3678 27.7008C62.3164 27.7008 64.2203 29.3475 66.1243 32.6923Z" fill="black"/>
<path d="M71.2701 44.1675C71.3215 44.1675 71.3215 44.1675 71.2701 44.1675C71.5274 44.1675 71.6818 43.9617 71.6303 43.7558C70.6526 31.3543 77.2393 24.2016 77.2907 24.0987C77.4451 23.9443 77.4451 23.687 77.2907 23.5327C77.1364 23.3783 76.8791 23.3783 76.7247 23.5327C76.6732 23.5841 74.9751 25.4366 73.3799 28.8329C71.939 31.9718 70.2924 37.1177 70.8584 43.7558C70.9099 44.0131 71.0643 44.1675 71.2701 44.1675Z" fill="black"/>
<path d="M69.1089 36.4488C69.1089 36.6546 69.2633 36.8604 69.4691 36.8604C69.6749 36.8604 69.8293 36.7061 69.8293 36.5002C70.4468 26.5687 67.7195 21.1141 67.5651 20.8568C67.4622 20.651 67.2564 20.5995 67.0506 20.7025C66.8447 20.8054 66.7933 21.0112 66.8962 21.217C66.9476 21.2685 69.6749 26.7231 69.1089 36.4488Z" fill="black"/>
<path d="M71.3728 32.6408C71.4242 32.6408 71.4242 32.6408 71.3728 32.6408C71.5786 32.6408 71.7844 32.435 71.7844 32.2292C71.5271 25.0764 72.8136 18.1295 72.8136 18.0781C72.865 17.8722 72.7107 17.6664 72.5048 17.615C72.299 17.5635 72.0932 17.7179 72.0417 17.9237C72.0417 17.9752 70.7552 24.9735 71.0125 32.2292C71.0125 32.4865 71.1669 32.6408 71.3728 32.6408Z" fill="black"/>
<path d="M68.4914 55.0253C68.5429 55.1796 68.6972 55.2311 68.8516 55.2311C68.9031 55.2311 68.9545 55.2311 69.006 55.1796C69.2118 55.0767 69.2633 54.8709 69.2118 54.665C65.4554 46.5861 59.6405 45.1967 59.3833 45.1452C59.1774 45.0938 58.9716 45.2481 58.9201 45.454C58.8687 45.6598 59.023 45.8656 59.2289 45.9171C59.2803 45.9171 64.9408 47.3065 68.4914 55.0253Z" fill="black"/>
<path d="M82.5395 47.4094C74.4605 49.2104 71.8362 55.1796 71.7332 55.4369C71.6303 55.6427 71.7332 55.8486 71.9391 55.9515C71.9905 55.9515 72.042 56.003 72.0935 56.003C72.2478 56.003 72.4022 55.9 72.4537 55.7457C72.4537 55.6942 75.0266 49.8794 82.7454 48.1813C82.9512 48.1298 83.1056 47.924 83.0541 47.7181C82.9512 47.5123 82.7454 47.3579 82.5395 47.4094Z" fill="black"/>
<path d="M76.1073 49.2619C76.1588 49.2619 76.1588 49.2619 76.2102 49.2619C76.3646 49.2619 76.519 49.159 76.5704 49.0046C76.5704 48.9532 78.7317 42.0063 83.5173 37.6838C83.6717 37.5294 83.6717 37.2721 83.5173 37.1177C83.3629 36.9634 83.1057 36.9634 82.9513 37.1177C78.0627 41.5946 75.9015 48.4901 75.7985 48.7988C75.7471 49.0047 75.9015 49.2105 76.1073 49.2619Z" fill="black"/>
<path d="M59.8463 39.1246C59.6919 39.2789 59.6919 39.5362 59.8463 39.6906C59.8977 39.7421 65.5067 45.2996 67.2048 50.394C67.2563 50.5484 67.4106 50.6513 67.565 50.6513C67.6165 50.6513 67.6679 50.6513 67.6679 50.6513C67.8738 50.5998 67.9767 50.3425 67.9252 50.1881C66.1757 44.9394 60.6181 39.4333 60.4123 39.176C60.2579 38.9702 60.0006 38.9702 59.8463 39.1246Z" fill="black"/>
<path d="M67.7193 56.5175C67.9252 56.5175 68.0795 56.3632 68.0795 56.2088C68.131 56.003 67.9766 55.7971 67.7708 55.7457C63.757 55.0252 60.8239 52.864 60.8239 52.864C60.6695 52.7611 60.4122 52.7611 60.3093 52.9669C60.2064 53.1213 60.2064 53.3786 60.4122 53.4815C60.5151 53.5844 63.4997 55.7971 67.7193 56.5175C67.6679 56.5175 67.6679 56.5175 67.7193 56.5175Z" fill="black"/>
<path d="M69.7263 58.473C67.668 58.1642 65.867 56.9807 65.867 56.9807C65.6611 56.8777 65.4553 56.9292 65.3524 57.0836C65.2495 57.238 65.3009 57.4953 65.4553 57.5982C65.5582 57.6496 67.4107 58.8332 69.6234 59.1934H69.6749C69.8807 59.1934 70.0351 59.039 70.0351 58.8846C70.0866 58.6788 69.9322 58.5244 69.7263 58.473Z" fill="black"/>
<path d="M72.0421 57.9069C72.0935 58.0099 72.1964 58.0099 72.2993 58.0099C72.4023 58.0099 72.5052 57.9584 72.5566 57.9069C72.6081 57.8555 76.5189 54.2019 82.7969 52.4009C83.0027 52.3494 83.1056 52.1436 83.0542 51.9378C83.0027 51.7319 82.7969 51.629 82.591 51.6805C76.1073 53.4815 72.1964 57.1865 72.0421 57.3409C71.8877 57.4953 71.8877 57.7526 72.0421 57.9069Z" fill="black"/>
<path d="M84.083 42.2636C80.1721 44.0132 78.474 46.8949 78.4225 47.0492C78.3196 47.2551 78.3711 47.4609 78.5769 47.5638C78.6284 47.6153 78.6798 47.6153 78.7828 47.6153C78.9371 47.6153 79.04 47.5638 79.143 47.4094C79.143 47.358 80.7896 44.5792 84.4432 42.9326C84.649 42.8296 84.7005 42.6238 84.649 42.418C84.4947 42.2636 84.2374 42.1607 84.083 42.2636Z" fill="black"/>
<path d="M76.7759 44.8879C76.9818 44.8879 77.1361 44.7335 77.1876 44.5277C77.239 39.0216 79.6576 35.6768 80.5839 34.4418C80.9441 33.9787 81.047 33.8243 80.9441 33.567C80.8926 33.3612 80.6353 33.2583 80.4809 33.3097C80.3266 33.3612 80.2751 33.4641 80.2236 33.6185C80.1722 33.67 80.0693 33.8243 79.9663 33.9787C79.0401 35.2652 76.5186 38.7643 76.4157 44.4762C76.3643 44.7335 76.5701 44.8879 76.7759 44.8879Z" fill="black"/>
<path d="M75.9529 41.9548C75.7985 41.8519 75.5412 41.9033 75.4383 42.0577C75.3354 42.2121 73.3285 45.454 73.6887 50.1881C73.6887 50.394 73.8946 50.5484 74.0489 50.5484C74.0489 50.5484 74.0489 50.5484 74.1004 50.5484C74.3062 50.5484 74.4606 50.3425 74.4606 50.1367C74.1519 45.7113 76.1073 42.5208 76.1073 42.4694C76.2102 42.315 76.1587 42.0577 75.9529 41.9548Z" fill="black"/>
<path d="M76.1584 56.8778C76.0554 56.9292 74.2029 57.7011 72.299 59.2449C72.1446 59.3992 72.0931 59.6051 72.2475 59.8109C72.299 59.9138 72.4533 59.9653 72.5563 59.9653C72.6592 59.9653 72.7106 59.9138 72.8136 59.8624C74.6146 58.3701 76.4671 57.5982 76.4671 57.5982C76.6729 57.4953 76.7759 57.2894 76.6729 57.0836C76.57 56.8778 76.3127 56.7749 76.1584 56.8778Z" fill="black"/>
<path d="M76.2616 53.4815C77.3937 51.8863 79.8122 51.063 79.8637 51.063C80.0695 51.0115 80.1724 50.7542 80.121 50.5999C80.0695 50.394 79.8122 50.2911 79.6578 50.3426C79.5549 50.394 76.9305 51.2688 75.6955 53.0699C75.5926 53.2243 75.5926 53.4815 75.7984 53.5845C75.8499 53.6359 75.9528 53.6359 76.0043 53.6359C76.0557 53.6359 76.1587 53.5845 76.2616 53.4815Z" fill="black"/>
<path d="M65.9696 54.6136C66.021 54.7166 66.1754 54.768 66.2783 54.768C66.3298 54.768 66.4327 54.768 66.4842 54.7166C66.6385 54.6136 66.69 54.3564 66.5871 54.202C63.8083 50.0338 60.2577 48.5415 60.1033 48.4901C59.8975 48.3872 59.6916 48.4901 59.5887 48.6959C59.4858 48.9018 59.5887 49.1076 59.7946 49.2105C59.8975 49.159 63.3452 50.6513 65.9696 54.6136Z" fill="black"/>
<path d="M61.2871 31.766C61.3385 31.766 63.9629 33.0525 65.095 40.3082C65.1465 40.514 65.3008 40.6169 65.4552 40.6169H65.5067C65.7125 40.5654 65.8669 40.4111 65.8154 40.1538C64.5804 32.3835 61.6987 31.0971 61.5444 31.0456C61.3385 30.9427 61.1327 31.0456 61.0298 31.2515C61.0298 31.4573 61.0812 31.6631 61.2871 31.766Z" fill="black"/>
<path d="M74.2029 34.1846C74.2029 34.1846 73.8427 36.706 72.3504 39.0217C72.2475 39.176 72.299 39.4333 72.4533 39.5363C72.5048 39.5877 72.6077 39.5877 72.6592 39.5877C72.7621 39.5877 72.9165 39.5363 72.9679 39.4333C74.5631 36.9633 74.9233 34.3904 74.9233 34.2875C74.9748 34.0816 74.8204 33.8758 74.6146 33.8758C74.4088 33.8244 74.2029 33.9787 74.2029 34.1846Z" fill="black"/>
<path d="M67.2047 37.2721C66.9988 37.2206 66.793 37.375 66.793 37.5808C66.793 37.7352 66.2784 41.4402 67.9766 44.9908C68.028 45.1452 68.1824 45.1967 68.3368 45.1967C68.3882 45.1967 68.4397 45.1967 68.4911 45.1452C68.697 45.0423 68.7484 44.8365 68.6455 44.6306C66.9988 41.2858 67.5134 37.6837 67.5134 37.6323C67.5649 37.5293 67.462 37.3235 67.2047 37.2721Z" fill="black"/>
<path d="M62.4705 45.2996C62.522 45.2996 62.5734 45.3511 62.6249 45.3511C62.7793 45.3511 62.9336 45.2482 62.9851 45.1453C63.088 44.9394 62.9851 44.7336 62.7793 44.6307C59.8461 43.3442 58.4568 40.5655 58.4568 40.5655C58.3538 40.3596 58.148 40.3082 57.9422 40.4111C57.7363 40.514 57.6849 40.7198 57.7878 40.9257C57.8392 40.9771 59.3315 43.9103 62.4705 45.2996Z" fill="black"/>
<path d="M67.4109 32.3835C67.4109 32.5893 67.6167 32.7437 67.7711 32.7437C67.7711 32.7437 67.7711 32.7437 67.8225 32.7437C68.0284 32.7437 68.1828 32.5379 68.1828 32.332C67.7196 25.8483 65.5069 23.3782 65.404 23.2753C65.2496 23.121 64.9923 23.121 64.8379 23.2753C64.6836 23.4297 64.6836 23.687 64.8379 23.8414C64.8894 23.7899 66.9992 26.2085 67.4109 32.3835Z" fill="black"/>
<path d="M69.6234 25.4366C69.572 25.6424 69.7264 25.8483 69.9322 25.8997H69.9836C70.1895 25.8997 70.3439 25.7453 70.3439 25.591C70.9614 21.4228 70.0866 18.747 70.0866 18.6441C70.0351 18.4382 69.7778 18.3353 69.6234 18.3868C69.4176 18.4382 69.3147 18.6441 69.3661 18.8499C69.3661 18.8499 70.1895 21.4743 69.6234 25.4366Z" fill="black"/>
<path d="M73.7914 26.3115C73.9972 26.3115 74.203 26.1057 74.203 25.8998C74.1001 23.2754 75.1808 20.9598 75.1808 20.9084C75.2837 20.7025 75.1808 20.4967 74.9749 20.3938C74.7691 20.2909 74.5633 20.3938 74.4603 20.5996C74.4089 20.7025 73.3283 23.1211 73.3797 25.8998C73.4312 26.1571 73.5855 26.3115 73.7914 26.3115Z" fill="black"/>
<path d="M75.85 35.6769C75.9015 35.6769 75.9529 35.6769 75.9529 35.6769C76.1073 35.6769 76.2617 35.574 76.3131 35.4196C77.4452 31.8689 79.4006 29.0902 79.4006 29.0387C79.5035 28.8844 79.5036 28.6271 79.2977 28.5241C79.1433 28.4212 78.8861 28.4212 78.7831 28.6271C78.6802 28.73 76.7762 31.5087 75.5927 35.1623C75.5412 35.3681 75.6442 35.574 75.85 35.6769Z" fill="black"/>
<path d="M78.6285 39.1761C78.4741 39.3305 78.4741 39.5878 78.6285 39.7421C78.6799 39.7936 78.7829 39.845 78.8858 39.845C78.9887 39.845 79.0916 39.7936 79.1431 39.7421C80.8927 37.8896 81.7674 35.6769 81.7674 35.574C81.8189 35.3682 81.716 35.1623 81.5616 35.0594C81.3558 35.0079 81.1499 35.1109 81.047 35.2652C81.0985 35.3167 80.2751 37.478 78.6285 39.1761Z" fill="black"/>
<path d="M63.088 37.6838C63.1395 37.7353 63.2424 37.7353 63.2939 37.7353C63.3968 37.7353 63.5512 37.6838 63.6026 37.5294C63.7055 37.3236 63.6541 37.1178 63.4997 37.0149C61.5443 35.7799 59.9491 33.3098 59.8976 33.2584C59.7947 33.104 59.5374 33.0526 59.383 33.1555C59.2286 33.2584 59.1772 33.5157 59.2801 33.6701C59.3316 33.8244 60.9782 36.3974 63.088 37.6838Z" fill="black"/>
<path d="M77.2392 26.5172C77.2392 26.5687 76.7761 29.6562 73.4313 32.4864C73.2769 32.6408 73.2255 32.8466 73.3798 33.0524C73.4313 33.1554 73.5857 33.2068 73.6886 33.2068C73.7915 33.2068 73.843 33.1554 73.9459 33.1039C77.548 30.0164 78.0111 26.7745 78.0111 26.6201C78.0626 26.4143 77.9082 26.2085 77.7023 26.2085C77.445 26.157 77.2392 26.3114 77.2392 26.5172Z" fill="black"/>
<path d="M33.9114 84.0994L32.7793 83.8421C32.7793 83.8421 33.4997 83.1217 34.1172 82.9673L33.9114 84.0994Z" fill="black"/>
<path d="M32.7275 86.1577C32.7275 86.1577 34.1169 86.415 34.4257 84.6654C34.4257 84.6654 35.7121 85.0256 36.0723 83.945C36.0723 83.945 34.8888 84.6654 33.7567 83.7391C33.7053 83.7906 34.0655 85.6946 32.7275 86.1577Z" fill="black"/>
<path d="M0.6175 100C0.411666 100 0.205831 99.8457 0.205831 99.5884C0.205831 99.3825 0.360208 99.1767 0.6175 99.1767C10.4975 99.1767 17.5988 95.5746 21.098 88.7821C22.4874 86.1062 23.5165 82.2983 22.5388 79.8798C22.1271 78.8506 21.3553 78.0787 20.2746 77.7185C18.2163 76.9981 16.3638 77.7185 14.0482 80.24C13.4307 80.9604 12.7617 81.7323 12.1957 82.4527C10.9607 83.9964 9.82857 85.4373 8.49065 86.3121C4.63126 88.9879 0.46313 88.0617 0.308754 88.0102C0.10292 87.9588 0 87.7529 0 87.5471C0.0514585 87.3413 0.257289 87.1869 0.463123 87.2383C0.514582 87.2383 4.42543 88.1646 8.02753 85.6431C9.21107 84.8198 10.3432 83.4304 11.5267 81.9381C12.1442 81.1662 12.7617 80.3944 13.4307 79.6739C15.1288 77.8214 17.4444 75.866 20.4805 76.9466C21.7669 77.4098 22.6932 78.2846 23.2078 79.571C24.2884 82.4012 23.1049 86.4665 21.7155 89.0908C18.1134 96.295 10.8063 100 0.6175 100Z" fill="black"/>
<path d="M2.31563 89.9141C1.69813 89.9141 1.18355 89.8626 0.823339 89.8626C0.668964 89.8626 0.514587 89.8626 0.41167 89.8626C0.205836 89.8626 0 89.7083 0 89.451C0 89.2451 0.154377 89.0393 0.41167 89.0393C0.514587 89.0393 0.668959 89.0393 0.874793 89.0393C2.16126 89.1422 5.55751 89.3481 8.69648 87.3412C10.3946 86.2605 11.8355 84.408 13.2248 82.6585C13.4821 82.3497 13.688 82.0409 13.9453 81.7322C14.0996 81.5778 14.3055 81.5264 14.5113 81.6807C14.6657 81.8351 14.7171 82.0409 14.5627 82.2468C14.3055 82.5555 14.0996 82.8643 13.8423 83.1216C12.4015 84.9226 10.9092 86.7751 9.10816 87.9587C6.68961 89.6568 4.06522 89.9141 2.31563 89.9141Z" fill="black"/>
<path d="M1.95553 91.5607C1.59532 91.5607 1.28657 91.5607 1.02928 91.5607C0.823448 91.5607 0.669072 91.5607 0.514697 91.5607C0.308863 91.5607 0.103027 91.4064 0.103027 91.1491C0.103027 90.9433 0.257404 90.7374 0.514697 90.7374C0.669072 90.7374 0.874909 90.7374 1.08074 90.7374C2.77887 90.7889 6.27804 90.8403 9.41701 88.9364C11.5268 87.6499 12.9162 86.0032 14.46 83.9964C14.6143 83.842 14.8202 83.7905 15.026 83.9449C15.1804 84.0993 15.2318 84.3051 15.0774 84.5109C13.4822 86.6207 12.0414 88.3189 9.82869 89.6568C6.99847 91.3549 3.91095 91.5607 1.95553 91.5607Z" fill="black"/>
<path d="M0.926366 93.2589C0.874908 93.2589 0.771986 93.2589 0.720528 93.2589H0.514697C0.308863 93.2589 0.103027 93.1045 0.103027 92.8472C0.103027 92.6414 0.257404 92.4356 0.514697 92.4356H0.720528C2.9847 92.4356 6.74117 92.4356 10.0345 90.5316C12.4016 89.1422 14.1512 87.1353 15.3862 85.4887C15.5406 85.3343 15.7464 85.2828 15.9522 85.4372C16.1066 85.5916 16.1581 85.7974 16.0037 86.0033C14.7172 87.6499 12.9162 89.7597 10.4462 91.2006C7.04992 93.156 3.29346 93.2589 0.926366 93.2589Z" fill="black"/>
<path d="M0.565966 94.9571C0.360132 94.9571 0.154297 94.8027 0.154297 94.5454C0.154297 94.3395 0.308674 94.1337 0.565966 94.1337C3.60202 94.1337 7.4614 93.9279 10.7033 92.1268C12.8645 90.9433 14.7171 89.2966 16.5181 86.8781C16.621 86.7237 16.8783 86.6722 17.0841 86.8266C17.2385 86.9295 17.29 87.1868 17.1356 87.3927C15.2831 89.8627 13.3277 91.6122 11.0635 92.8473C7.66724 94.6998 3.65348 94.9571 0.565966 94.9571Z" fill="black"/>
<path d="M0.565966 96.6037C0.360132 96.6037 0.154297 96.4494 0.154297 96.1921C0.154297 95.9348 0.308674 95.7804 0.565966 95.7804C5.09431 95.7804 8.59349 95.1115 11.3723 93.6706C14.9743 91.8181 17.0327 89.1423 18.2677 87.2898C18.3706 87.1354 18.6279 87.0839 18.7823 87.1868C18.9366 87.2898 18.9881 87.5471 18.8852 87.7014C16.8783 90.686 14.5112 92.8987 11.681 94.3396C8.85079 95.8833 5.19723 96.6037 0.565966 96.6037Z" fill="black"/>
<path d="M0.617724 98.3018C0.41189 98.3018 0.206055 98.1475 0.206055 97.8902C0.206055 97.6843 0.360432 97.4785 0.617724 97.4785C5.19753 97.4785 9.00546 96.7066 12.0415 95.2658C15.4378 93.6191 18.0622 91.0462 20.069 87.547C20.172 87.3412 20.4292 87.2897 20.5836 87.3926C20.7895 87.4956 20.8409 87.7529 20.738 87.9072C18.6282 91.6122 15.9009 94.2366 12.4017 95.9347C9.2113 97.53 5.30045 98.3018 0.617724 98.3018Z" fill="black"/>
<path d="M31.5957 83.9449C31.9044 83.6876 32.2646 83.4818 32.6248 83.4303C32.2646 83.173 31.6986 83.2245 31.2869 83.6362C30.8752 83.9964 30.7209 84.5624 30.9267 84.9226C31.0811 84.5624 31.2869 84.2022 31.5957 83.9449Z" fill="black"/>
<path d="M34.4772 81.9895C34.8889 81.8351 35.2491 81.7836 35.6093 81.8351C35.352 81.4749 34.8374 81.372 34.3229 81.5778C33.8083 81.7836 33.4995 82.2468 33.551 82.6584C33.7568 82.4011 34.0656 82.1439 34.4772 81.9895Z" fill="black"/>
<path d="M88.1997 41.5432L86.4501 41.749C87.1705 40.7713 88.5084 38.9702 88.8172 36.809C88.8172 36.6546 88.7657 36.5517 88.6628 36.4488C88.5599 36.3459 88.4055 36.3459 88.3026 36.3973L85.9355 37.375C86.3986 36.2429 87.0161 34.2361 86.9132 32.0233C86.9132 31.869 86.8103 31.7146 86.6559 31.6631C86.5015 31.6117 86.3472 31.6631 86.2443 31.7661L84.3917 33.67C84.752 32.3321 85.1122 30.2738 84.7005 28.4727C84.649 28.3183 84.5461 28.2154 84.3917 28.164C84.2374 28.1125 84.083 28.2154 83.9801 28.3183L83.1567 29.6048C83.3626 28.2669 83.414 26.5687 82.8995 24.7677C82.848 24.6133 82.7451 24.5104 82.5907 24.5104C82.4363 24.5104 82.2819 24.5619 82.2305 24.7162L81.5615 26.0027C81.6644 24.7677 81.5615 23.1725 80.9955 21.8346C80.944 21.6802 80.7897 21.5773 80.6353 21.5773C80.4809 21.5773 80.3265 21.6802 80.2751 21.7831L79.4003 23.4812C79.3488 22.2462 79.1944 20.4966 78.5769 18.7985C78.5255 18.6441 78.4226 18.5412 78.2682 18.5412C78.1138 18.5412 77.9594 18.5927 77.908 18.6956L77.3934 19.5189C77.4963 18.2325 77.3934 16.4314 76.5186 14.8362C76.4671 14.7333 76.3128 14.6304 76.1584 14.6304C76.004 14.6304 75.9011 14.7333 75.7982 14.8362L74.769 16.7402C74.769 15.6081 74.6661 14.1673 74.2544 13.0352C74.203 12.8808 74.0486 12.7779 73.9457 12.7779C73.7913 12.7779 73.6369 12.8293 73.5855 12.9837L72.299 15.1964L71.2698 12.1604C71.2184 12.006 71.064 11.9031 70.8582 11.9031C70.7038 11.9031 70.5494 12.0575 70.4979 12.2118L69.7261 15.8139L68.6454 13.5497C68.594 13.3954 68.4396 13.2925 68.2852 13.3439C68.1309 13.3439 67.9765 13.4468 67.925 13.6012C67.4619 14.8362 67.2046 16.38 67.1017 17.4091L65.9181 15.7625C65.8152 15.6595 65.7123 15.6081 65.5579 15.6081C65.4036 15.6081 65.3006 15.711 65.2492 15.8139C64.5288 17.2033 64.2715 18.4898 64.2715 19.4675L63.8598 18.7471C63.8083 18.5927 63.654 18.5412 63.4996 18.5412C63.3452 18.5412 63.2423 18.6441 63.1908 18.7985C62.6248 20.4966 62.5219 22.0404 62.6248 23.121L61.4927 21.6802C61.3898 21.5773 61.2869 21.5258 61.1325 21.5258C60.9781 21.5258 60.8752 21.6287 60.8238 21.7831C60.2577 23.1725 60.2063 24.7162 60.2577 25.9512L59.5887 24.6648C59.5373 24.5104 59.3829 24.459 59.2285 24.459C59.0742 24.459 58.9198 24.5619 58.9198 24.7162C58.3537 26.5687 58.3537 28.3183 58.5596 29.5533L57.6848 28.2154C57.6333 28.1125 57.4789 28.061 57.3246 28.061C57.1702 28.061 57.0673 28.164 57.0158 28.2669C56.81 28.6785 56.7071 29.2961 56.6556 30.0165C56.9644 30.4281 57.2217 30.8398 57.479 31.3029C57.4275 30.5825 57.376 29.9135 57.479 29.399L59.0742 31.7661C59.1771 31.9204 59.3829 31.9719 59.5887 31.869C59.7431 31.7661 59.846 31.5602 59.7946 31.4058C59.7946 31.3544 58.8683 28.9358 59.4858 25.9512L60.7208 28.2669C60.8238 28.4213 61.0296 28.5242 61.184 28.4213C61.3898 28.3698 61.4413 28.164 61.4413 27.9581C61.4413 27.9067 60.7723 25.0765 61.4413 22.7094L62.985 24.7677C63.0879 24.9221 63.2938 24.9735 63.4481 24.8706C63.6025 24.7677 63.7054 24.6133 63.654 24.4075C63.654 24.4075 63.1394 22.3492 63.7569 19.8791L64.5802 21.3714C64.6831 21.5258 64.889 21.6287 65.0433 21.5258C65.2492 21.4744 65.3006 21.2685 65.2492 21.0627C65.2492 21.0627 64.6831 19.0558 65.7123 16.7402L67.1531 18.7471C67.2561 18.9014 67.4104 18.9529 67.5648 18.9014C67.7192 18.85 67.8221 18.6956 67.8221 18.5412C67.8221 18.5412 67.8736 16.5858 68.3881 14.7848L69.5717 17.2033C69.6232 17.3577 69.7775 17.4606 69.9834 17.4091C70.1377 17.4091 70.2921 17.2548 70.2921 17.1004L71.0125 13.7556L71.8359 16.277C71.8873 16.4314 71.9903 16.5343 72.1446 16.5343C72.299 16.5343 72.4534 16.4829 72.5048 16.3285L73.7913 14.1673C74.203 16.0198 73.9457 18.3868 73.9457 18.3868C73.9457 18.5927 74.0486 18.7471 74.203 18.7985C74.3573 18.85 74.5632 18.7471 74.6661 18.5927L76.1069 15.8654C77.0332 18.3354 76.3128 21.1141 76.3128 21.1141C76.2613 21.32 76.3642 21.4744 76.5186 21.5773C76.673 21.6287 76.8788 21.5773 76.9817 21.4229L78.0624 19.7248C78.7828 22.3492 78.5769 24.9735 78.5769 24.9735C78.5769 25.1794 78.6799 25.3337 78.8342 25.3852C79.0401 25.4367 79.1944 25.3337 79.2974 25.1794L80.4809 22.8123C81.0469 25.1279 80.4294 27.8038 80.4294 27.8552C80.378 28.061 80.4809 28.2154 80.6867 28.3183C80.8926 28.3698 81.0984 28.3183 81.1499 28.164L82.3849 25.8483C82.9509 28.8844 81.8188 31.6117 81.7674 31.6631C81.6644 31.869 81.7674 32.0748 81.9217 32.1777C82.0761 32.2806 82.3334 32.2292 82.4363 32.0233L84.0315 29.5019C84.1859 32.0748 83.1053 34.8021 83.1053 34.8536C83.0538 35.0079 83.1053 35.2138 83.2596 35.3167C83.414 35.4196 83.6199 35.4196 83.7228 35.2652L86.0899 32.8467C85.9869 35.574 84.8034 37.7867 84.8034 37.7867C84.7519 37.9411 84.7519 38.0955 84.8549 38.2498C84.9578 38.3527 85.1636 38.4042 85.2665 38.3527L87.8395 37.2721C87.4278 38.9702 86.3472 40.3596 85.7297 41.183C85.318 41.6975 85.1636 41.9034 85.2151 42.1607C85.2151 42.2636 85.2665 42.3665 85.3694 42.418C85.4724 42.4694 85.5753 42.5209 85.6782 42.5209L87.4278 42.315C85.9355 44.4763 84.1345 45.2996 84.1345 45.2996C83.9801 45.4026 83.8772 45.5569 83.9286 45.7628C83.9801 45.9686 84.1344 46.0715 84.3403 46.0715L87.0161 45.8142C85.2665 48.0784 82.1276 49.828 82.0761 49.828C81.9217 49.9309 81.8188 50.0853 81.8703 50.2911C81.9217 50.4455 82.0761 50.5999 82.2819 50.5484L86.0384 50.2911C83.5684 53.3786 79.7605 54.6651 79.709 54.7165C79.5032 54.768 79.4003 54.9738 79.4517 55.1797C79.5032 55.3855 79.6576 55.4884 79.8634 55.4884L82.7965 55.2311C79.8119 57.7526 76.8788 58.5759 76.7244 58.5759C76.5701 58.5759 76.4157 58.7303 76.4157 58.8847C76.3642 59.1934 76.3642 59.2449 78.474 60.0682C76.7244 60.943 73.9457 61.4062 70.8067 61.4062C67.9765 61.4062 65.4036 60.9945 63.654 60.2741H63.9627C64.7346 60.2226 65.1977 60.1711 65.5065 60.1197C65.5579 60.1197 65.5579 60.1197 65.5579 60.1197C65.9696 60.0682 65.9696 59.9653 65.9696 59.7595C65.9696 59.5536 65.8152 59.3993 65.6094 59.3993C65.5579 59.3993 63.0365 58.8847 60.1033 56.5176L62.419 57.0322C62.6248 57.0836 62.7792 56.9807 62.8821 56.7749C62.9336 56.6205 62.8821 56.4147 62.7277 56.3118C62.6763 56.3118 58.9712 54.202 56.5012 51.0115L59.5887 51.4747C59.7946 51.5261 59.949 51.4232 60.0004 51.2174C60.0519 51.063 60.0004 50.8572 59.846 50.7542C59.7946 50.7028 56.1925 48.1813 54.2885 45.8657L57.3246 46.8949C57.4789 46.9463 57.6848 46.8949 57.7877 46.7405C57.8906 46.5861 57.8392 46.3803 57.6848 46.2774C57.6848 46.2774 55.8323 44.7851 54.2885 42.418L56.0896 42.6238C56.2439 42.6238 56.3983 42.5723 56.4498 42.418C56.5012 42.2636 56.5012 42.1092 56.3983 42.0063L55.2662 40.6684C54.9575 40.7198 54.7002 40.7713 54.3914 40.8228L55.2148 41.8005L53.6196 41.5946C53.4652 41.5946 53.3108 41.6461 53.2594 41.749C53.1564 41.8519 53.1564 42.0063 53.2594 42.1607C54.1341 43.653 55.1633 44.8365 55.9352 45.6598L53.4652 44.8365C53.3108 44.7851 53.1564 44.8365 53.0535 44.9394C52.9506 45.0424 52.9506 45.2482 53.0021 45.4026C54.1341 47.2551 56.6556 49.3649 58.1994 50.5484L55.7294 50.1882C55.575 50.1882 55.4206 50.2397 55.3692 50.3426C55.2662 50.497 55.2662 50.6513 55.3692 50.7542C56.8615 53.0184 59.0227 54.768 60.5665 55.8486L58.8683 55.4884C58.714 55.437 58.5081 55.5399 58.4567 55.6943C58.3537 55.8486 58.4052 56.0545 58.5081 56.1574C60.4635 58.0099 62.3675 59.0391 63.7054 59.6051C63.2423 59.6566 62.7277 59.6566 62.3161 59.708C62.1617 59.708 62.0073 59.8624 61.9558 60.0168C61.9044 60.1711 61.9558 60.3255 62.1102 60.4284C63.8598 61.5605 67.0502 62.2809 70.6523 62.2809V81.2691H64.2715C64.1686 81.2691 64.0656 81.3206 63.9627 81.4235C63.9113 81.5264 63.8598 81.6293 63.8598 81.7323L66.4842 99.3825C66.5357 99.5884 66.69 99.6913 66.8444 99.6913H75.0778C75.2836 99.6913 75.438 99.5369 75.438 99.3825L78.0624 81.7323C78.0624 81.6293 78.0623 81.5264 77.9594 81.4235C77.908 81.3206 77.8051 81.2691 77.6507 81.2691H71.2698V62.2809C74.7175 62.2295 77.7536 61.5091 79.4517 60.4284C79.5546 60.3255 79.6576 60.2226 79.6061 60.0682C79.6061 59.9139 79.5032 59.8109 79.3488 59.7595C78.7828 59.5536 78.1653 59.2964 77.7021 59.0905C79.0915 58.5759 81.6644 57.3409 84.0315 55.0768C84.1344 54.9738 84.1859 54.768 84.1345 54.6136C84.083 54.4593 83.9286 54.3563 83.7228 54.4078L81.9217 54.5622C83.4655 53.7388 85.5238 52.298 86.9647 50.1882C87.0676 50.0853 87.0676 49.9309 86.9647 49.7765C86.9132 49.6736 86.7588 49.5707 86.6045 49.5707L83.5684 49.7765C84.9063 48.9017 86.8103 47.4094 87.8909 45.6598C87.9424 45.5569 87.9424 45.4026 87.8909 45.2482C87.788 45.1453 87.6851 45.0423 87.5307 45.0938L85.6267 45.2996C86.3986 44.6821 87.4278 43.7044 88.3026 42.2121C88.354 42.1092 88.354 41.9034 88.3026 41.8005C88.5084 41.5946 88.354 41.5432 88.1997 41.5432ZM77.3934 81.9896L74.8719 98.8679H67.3075L64.7861 81.9896H77.3934Z" fill="black"/>
<path d="M60.4123 94.0823C60.3608 93.7735 53.6198 62.847 52.6935 58.6788C52.1789 56.4146 52.1789 55.0253 52.1275 53.3786C52.076 52.0407 52.076 50.5484 51.7673 48.2842C51.407 45.8657 50.5322 44.1675 49.7089 42.6238C49.606 42.4694 49.5545 42.315 49.4516 42.1606C45.8495 44.1675 41.7843 43.2927 41.7843 43.2927C45.5922 43.2927 48.3195 41.8519 49.0914 41.4402C48.9885 41.2344 48.9885 41.2344 48.937 41.08L41.7843 40.6684L42.093 39.9994L39.3143 40.4111L33.0878 52.9669C32.882 52.8126 32.6761 52.7096 32.4189 52.7096C32.3674 52.7096 32.3674 52.7096 32.3159 52.7096L33.1907 50.9086L38.8512 39.5363C39.057 39.6392 39.3143 39.6906 39.623 39.6906C40.6522 39.6906 42.762 39.5363 42.762 39.5363L42.5047 40.1538C42.5047 40.1538 46.6729 40.3596 48.6797 40.4111C48.8341 40.4111 48.9885 40.4111 49.1429 40.4111C49.4516 40.4111 49.7604 40.4111 50.0691 40.4111C52.8993 40.3081 57.2733 39.9479 58.3539 38.5071C59.7433 36.6031 58.0452 33.2069 56.5014 30.9427C54.4431 28.2154 51.7672 24.8191 48.7827 23.0181L56.2956 7.78637L54.2887 6.7572L47.0845 21.1656C46.7243 20.7025 46.4156 20.3422 46.3127 20.1879C46.3127 20.1364 46.2612 20.1364 46.2612 20.085L45.9524 19.8277C45.8495 19.7247 45.6437 19.7247 45.4893 19.7762C45.4893 19.7762 43.3795 21.0112 41.6814 21.0112C40.1891 21.0112 39.726 20.7025 39.726 20.7025C39.6745 20.651 39.5716 20.5995 39.4687 20.5995C39.3658 20.5995 39.2628 20.651 39.2114 20.7025L39.0055 20.8568L38.9541 20.9083C38.9541 20.9597 36.8957 23.687 36.2268 24.5104C33.2422 28.2154 34.6316 30.7369 35.6093 32.5894C35.7122 32.7952 35.8151 32.9496 35.918 33.104C35.918 33.1554 35.9695 33.1554 35.9695 33.2069C36.8957 34.6477 37.5647 39.845 37.153 41.2344C36.7414 42.5723 35.5578 44.9909 35.5578 44.9909C35.5578 44.9909 37.7191 39.279 35.6607 33.6185C34.5286 36.3458 30.1547 47.3065 29.177 52.7611C30.5149 50.394 32.1616 50.0338 32.6761 49.9823L32.6247 50.0338C30.6693 50.8571 29.1255 53.2757 28.8682 55.2311C28.8168 55.5913 28.8682 55.9515 28.9711 56.2603C29.0226 56.4661 29.1255 56.6205 29.2284 56.7749L19.2455 76.8437C19.5028 76.9466 19.7601 77.0495 19.9659 77.1524L29.8459 57.3409C30.0003 57.4438 30.1547 57.4953 30.3091 57.5467C30.412 57.5982 30.5149 57.5982 30.6178 57.6497L20.8407 77.4097L21.4067 77.9758L31.5441 57.5467C31.9043 57.3924 32.2645 57.0836 32.5732 56.6719C33.1907 55.8486 33.6024 54.5621 33.448 53.6874L36.1753 48.3871C36.1753 48.3871 34.8374 51.7834 33.1907 57.1865C32.213 61.9722 31.0809 67.6326 30.0518 73.0357C30.7207 73.0872 32.3674 73.0357 33.551 71.6978C33.551 71.6978 33.0878 74.0135 29.9489 73.7047C29.5372 75.763 29.177 77.8214 28.8168 79.7253C27.7876 85.1285 26.9643 89.451 26.6041 90.9433C26.3468 92.0239 26.0895 92.8473 25.8322 93.5162C26.3468 93.825 27.2216 94.1852 28.6109 94.3396C28.6109 94.3396 26.6555 94.6998 25.3176 94.4425C24.6486 95.4202 23.7738 95.8319 22.5388 96.1406C20.1203 96.8096 18.2163 97.3242 18.2163 99.0223C18.2163 99.1252 18.2678 99.2281 18.3192 99.2796C18.3707 99.331 18.4736 99.3825 18.5765 99.3825H29.3313C29.4857 99.3825 29.6401 99.2796 29.6916 99.1252L31.3897 93.9794C31.4926 94.1852 31.5955 94.4425 31.6984 94.6483C32.3159 95.8833 32.3674 97.0154 32.4189 97.8387C32.4703 98.4562 32.5218 98.8679 32.7276 99.1767C32.9849 99.4854 33.448 99.6398 33.9111 99.6398C34.0655 99.6398 34.1685 99.6398 34.3228 99.5883C34.786 99.4854 35.0947 99.1767 35.1976 98.765C35.3005 98.3019 35.3005 98.1475 35.1976 97.8387C35.1462 97.6844 35.0947 97.4785 35.0947 97.1183C35.0432 96.7066 34.9918 96.3464 34.9918 95.9862C34.8889 94.9571 34.7859 94.1337 34.7859 93.2589C34.7859 92.8987 34.9403 92.7443 35.352 92.4871C35.6093 92.2812 35.918 92.0754 36.2268 91.6637C36.3812 92.6929 36.5355 94.4939 36.4326 97.0669C36.4326 97.2727 36.3812 97.53 36.3297 97.7358C36.2268 98.1989 36.1753 98.6621 36.4326 99.0223C36.7414 99.3825 37.256 99.4339 37.6162 99.4339C38.1822 99.4339 38.5424 99.331 38.7997 99.0737C39.057 98.765 39.0056 98.3533 38.9541 98.0446C38.9026 97.8387 38.9026 97.6329 38.9541 97.4271C39.3658 94.8027 39.9318 91.1491 39.9318 88.6791C39.9318 86.1062 37.7191 84.3052 37.6162 84.2022C37.4618 84.0479 37.2045 84.0993 37.0501 84.2537C36.8957 84.4081 36.9472 84.6654 37.1016 84.8197C37.1016 84.8197 39.1599 86.4664 39.1599 88.6791C39.1599 91.0977 38.5939 94.6998 38.1822 97.3242C38.1308 97.6329 38.1822 97.9417 38.1822 98.1475C38.1822 98.3019 38.2337 98.5592 38.1822 98.5592C38.1822 98.5592 38.0793 98.6621 37.5647 98.6621C37.1016 98.6621 36.9987 98.5592 36.9472 98.5592C36.8957 98.5077 36.9472 98.1475 36.9987 97.9417C37.0501 97.6844 37.1016 97.4271 37.1016 97.1698C37.256 92.59 36.6899 90.5316 36.6385 90.4287C36.587 90.2743 36.4326 90.1714 36.2782 90.1714C36.1239 90.1714 35.9695 90.2743 35.918 90.4287C35.6607 91.3035 35.1976 91.6123 34.7859 91.921C34.3743 92.2298 33.9111 92.5385 33.9111 93.3104C33.8597 94.2366 33.9626 95.06 34.117 96.1406C34.1684 96.5008 34.2199 96.861 34.2199 97.2727C34.2714 97.6844 34.3228 97.8902 34.3743 98.096C34.4257 98.3019 34.4257 98.3533 34.3743 98.6621C34.3743 98.7135 34.3228 98.8164 34.0655 98.9194C33.7568 99.0223 33.3451 98.8679 33.2422 98.765C33.1907 98.6621 33.1393 98.2504 33.1393 97.8902C33.0878 97.0669 32.9849 95.7804 32.3159 94.391C31.2868 92.2298 30.9266 91.3035 31.6984 89.7083L31.8013 89.451C32.5732 87.9587 32.5732 87.9072 32.4189 87.65C32.3674 87.5985 32.3674 87.5985 32.3159 87.5985C32.3159 87.5985 32.3159 87.5985 32.2645 87.5985C32.2645 87.5985 32.213 87.5985 32.213 87.547C31.8528 87.3927 31.4412 87.1354 30.978 86.6722C30.5149 86.2091 30.2576 85.5916 30.1547 84.9227L28.7653 82.8643L30.5663 82.5041C30.9266 81.6808 31.5955 81.0118 32.4703 80.6516L33.1907 78.5418L34.6316 80.5487C35.0947 80.6516 35.4034 80.8574 35.6607 81.0633L42.4018 60.7372C41.1153 56.1059 40.3435 51.2688 40.3435 51.2688L42.8649 59.3992C44.9747 66.2947 47.0845 72.3668 48.8856 77.4097C50.0691 77.6155 52.0246 77.8214 53.6198 77.2553C53.6198 77.2553 51.8187 78.5418 49.2458 78.3874C50.3779 81.5264 51.407 84.2537 52.1789 86.3635C53.2081 89.1937 53.9285 91.0462 54.0829 91.6637C54.1858 92.0754 54.2373 92.4356 54.2887 92.7958C54.8033 93.1046 55.6266 93.4133 57.016 93.6191C57.016 93.6191 55.6266 93.8764 54.3916 93.825C54.3916 95.1629 53.8256 95.9348 52.642 96.2435C50.2235 96.9125 48.3195 97.4271 48.3195 99.1252C48.3195 99.2281 48.371 99.331 48.4225 99.3825C48.4739 99.434 48.5768 99.4854 48.6797 99.4854H60.9783C61.0812 99.4854 61.1842 99.434 61.2871 99.331C61.3385 99.2281 61.39 99.1252 61.39 99.0223L60.4123 94.0823ZM54.546 7.88929L55.215 8.19804L43.7397 31.4058C44.0485 31.766 44.5116 32.7437 44.6145 33.3612C44.8718 34.5963 44.4601 35.2138 44.4601 35.2138C44.7689 34.8535 45.6951 35.0079 46.2612 35.0594C46.6729 35.0594 47.9079 35.1623 48.5254 35.1623C48.6283 34.7506 48.6797 34.339 48.7827 33.9273C48.937 33.3098 48.9885 32.8981 49.1429 32.2292C48.371 31.1485 47.3933 29.4504 47.3933 29.4504C47.3933 29.4504 48.3195 30.4281 49.2972 31.4573C49.2972 31.4573 49.2972 31.4573 49.2972 31.4058L53.0537 35.3681C53.2596 35.2137 53.877 34.1331 55.215 33.9273C55.215 33.9273 54.3916 34.6477 53.6712 35.9856H53.6198H53.5683L46.0554 35.7283C46.7243 37.7352 44.9747 39.3819 44.9747 39.3819C45.5922 37.5808 45.2835 36.14 45.1806 35.6769C45.1806 35.6769 44.8718 35.6254 44.7174 35.7798C44.5631 35.8827 44.4601 36.0371 44.4601 36.0371C43.5339 35.9342 44.5116 34.6992 44.2028 33.5671C43.997 32.8467 43.6368 32.3321 43.431 32.0748L42.1445 34.6477C41.8872 34.5963 41.6299 34.4933 41.3212 34.4933L54.546 7.88929ZM42.5562 35.574L43.4824 33.7215C43.5339 34.0302 43.5853 34.4933 43.3795 35.0594C43.2251 35.574 43.2251 36.0371 43.4824 36.3458C43.6368 36.6031 43.8941 36.7575 44.1514 36.8604L43.0708 38.9188C42.6591 38.9188 41.6299 38.9702 40.2406 38.9702C38.7483 38.9702 38.5424 38.3013 38.491 38.2498C38.491 38.1983 38.491 38.1983 38.4395 38.1469C38.4395 38.1469 38.1307 37.5294 39.1085 36.0371C40.0347 34.4419 42.4533 35.5225 42.5562 35.574ZM38.8512 22.9152C39.1599 22.9152 39.3658 23.121 39.3658 23.4298C39.3658 23.7385 39.1599 23.9443 38.8512 23.9443C38.5424 23.9443 38.3366 23.7385 38.3366 23.4298C38.3366 23.121 38.5939 22.9152 38.8512 22.9152ZM37.822 24.356C38.1307 24.356 38.3366 24.5618 38.3366 24.8706C38.3366 25.1793 38.1307 25.3852 37.822 25.3852C37.5132 25.3852 37.3074 25.1793 37.3074 24.8706C37.3074 24.5618 37.5647 24.356 37.822 24.356ZM36.8443 26.826C36.5355 26.826 36.3297 26.6202 36.3297 26.3114C36.3297 26.0027 36.5355 25.7968 36.8443 25.7968C37.153 25.7968 37.3589 26.0027 37.3589 26.3114C37.3589 26.5687 37.153 26.826 36.8443 26.826ZM31.9557 56.4146C31.647 56.8263 31.1324 57.2894 30.5663 57.0836C30.1032 56.9292 29.8459 56.6719 29.6916 56.2603C29.5372 55.7457 29.5886 54.5107 30.5663 53.0184C31.5441 51.5776 31.9557 51.3203 32.1616 51.1144L30.9266 53.7903C30.9266 53.7903 31.8013 52.9155 32.5732 53.6359C33.0878 54.099 32.6762 55.4369 31.9557 56.4146Z" fill="black"/>
<path d="M47.8563 16.5343C47.8563 15.4537 47.1359 14.8362 46.8272 14.5789C47.1874 13.9614 47.5476 13.1895 47.8563 12.2632C48.8855 8.96989 48.0107 6.70572 47.5991 5.62509C47.5476 5.52217 47.5476 5.41926 47.4961 5.3678C46.8272 3.51529 45.5407 2.12591 43.3794 0.890909C40.6521 -0.652845 35.6092 -0.189719 33.9111 2.53758C32.779 4.39009 33.5509 6.13968 34.2713 6.96301C34.0655 7.4776 33.7567 8.86698 33.9625 11.1826C34.1169 12.7778 33.8082 14.0643 33.1392 14.7847C33.0363 14.8876 32.9848 15.042 33.0363 15.1964C33.0878 15.3507 33.1907 15.4537 33.345 15.4537L35.1975 15.711C35.5063 16.3799 36.5355 18.4383 38.1307 18.9014C38.4909 19.0043 38.8511 19.0558 39.1599 19.0558C39.3657 19.0558 39.5715 19.0558 39.7259 19.0043C39.6744 19.4674 39.5715 20.2908 39.0055 21.2685C38.9026 21.4743 38.954 21.6801 39.1599 21.7831C39.2113 21.8345 39.2628 21.8345 39.3657 21.8345C39.5201 21.8345 39.623 21.7831 39.7259 21.6287C40.4463 20.3422 40.5492 19.2616 40.5492 18.747C40.858 18.6441 41.1667 18.4897 41.424 18.3353L41.4755 18.2839C41.6813 18.181 41.7328 17.9751 41.6299 17.7693C41.5269 17.5635 41.3211 17.512 41.1153 17.6149L41.0638 17.6664C40.1376 18.181 39.4686 18.5412 38.388 18.181C36.8442 17.7178 35.8665 15.2478 35.8151 15.1964C35.7636 15.0935 35.6607 14.9905 35.5578 14.9905C35.1461 14.9391 34.0655 14.9905 33.8082 14.8876C33.9626 14.6303 34.3228 14.1672 34.5286 13.7555C34.7344 13.0866 34.8373 12.2118 34.7344 11.0797C34.4771 8.30093 35.0432 7.06593 35.0946 7.01447C35.1461 6.8601 35.1461 6.65426 34.9917 6.55134C34.9403 6.49989 33.2936 4.90467 34.5286 2.89779C36.0724 0.376325 40.7551 0.273407 42.9678 1.50841C45.5407 3.00071 46.364 4.44155 46.7757 5.57363C46.8272 5.67655 46.8272 5.77947 46.8786 5.88238C47.2388 6.86009 48.0622 8.96989 47.1359 12.0059C46.3126 14.6303 45.0261 15.711 43.894 16.3799C43.6882 16.4828 43.6367 16.7401 43.7397 16.8945C43.8426 17.0489 43.9969 17.1003 44.1513 17.0489C44.2028 17.0489 44.2543 16.9974 44.3572 16.946C44.4601 16.8945 44.563 16.843 44.6145 16.7401C44.6145 16.7401 44.4086 16.946 44.4086 17.4605C44.4086 17.9751 44.8718 19.9306 45.5922 20.7024L46.6213 21.8345C46.6728 21.9374 46.8272 21.9374 46.9301 21.9374C47.033 21.9374 47.1359 21.886 47.1874 21.8345C47.3418 21.6801 47.3418 21.4228 47.1874 21.2685L46.1582 20.1364C45.3863 19.3131 45.0776 17.2547 45.0261 16.4314C45.0776 16.3799 45.129 16.3799 45.1805 16.3285C45.3349 17.0489 45.8495 17.9751 47.3932 18.6955C47.4447 18.6955 47.4961 18.747 47.5476 18.747C47.6505 18.747 47.7534 18.6956 47.8049 18.6441C47.9078 18.5412 47.9593 18.3868 47.9078 18.2324C47.9593 18.2839 47.8563 17.8722 47.8563 16.5343ZM45.9524 15.7624C46.1067 15.608 46.2611 15.4022 46.4155 15.2478C46.6213 15.4022 47.1359 15.8653 47.1359 16.5343C47.1359 17.0489 47.1359 17.4091 47.1359 17.7178C46.0038 16.9974 45.9524 16.0712 45.9524 15.7624Z" fill="black"/>
</svg>
