<svg width="25" height="25" viewBox="0 0 25 25" fill="none" xmlns="http://www.w3.org/2000/svg"><path d="M18.512 22.268a.691.691 0 01-.99.55l-.611-.237a3.475 3.475 0 00-3.658.896l-.432.492a.69.69 0 01-1.13-.022l-.41-.51a3.476 3.476 0 00-3.617-1.053l-.62.21a.69.69 0 01-.967-.588l-.101-.647a3.477 3.477 0 00-2.605-2.717l-.642-.128a.69.69 0 01-.527-.355l-.658.36.658-.36a.692.692 0 01-.017-.636l.237-.61a3.478 3.478 0 00-.897-3.66l-.496-.433a.692.692 0 01.024-1.13l.51-.41a3.478 3.478 0 001.053-3.617l-.21-.62a.692.692 0 01.588-.968l.646-.101a3.477 3.477 0 002.717-2.605l.127-.642a.692.692 0 01.99-.545l.61.237a3.475 3.475 0 003.658-.896l.432-.492a.69.69 0 011.13.022l.41.51.024.03a3.475 3.475 0 003.592 1.024l.62-.211a.69.69 0 01.967.588l.102.647a3.477 3.477 0 002.605 2.717l.641.128a.767.767 0 00.03.006.691.691 0 01.526.958l-.004.009a.6.6 0 00-.007.018l-.237.61a3.478 3.478 0 00.901 3.664l.502.43a.692.692 0 01-.029 1.126l-.51.41a3.477 3.477 0 00-1.052 3.617l.21.621.01.028a.692.692 0 01-.598.94l-.647.101a3.477 3.477 0 00-2.716 2.6l-.132.644zM17 8l-9 9" stroke="#222" stroke-width="1.5" stroke-linecap="round" stroke-linejoin="round"/><path d="M16 14a2 2 0 100 4 2 2 0 000-4zM9 7a2 2 0 100 4 2 2 0 000-4z" fill="#222"/></svg>